G04 #@! TF.GenerationSoftware,KiCad,Pcbnew,(5.1.4)-1*
G04 #@! TF.CreationDate,2021-07-20T11:22:30+01:00*
G04 #@! TF.ProjectId,AleeMacro,416c6565-4d61-4637-926f-2e6b69636164,rev?*
G04 #@! TF.SameCoordinates,Original*
G04 #@! TF.FileFunction,Legend,Bot*
G04 #@! TF.FilePolarity,Positive*
%FSLAX46Y46*%
G04 Gerber Fmt 4.6, Leading zero omitted, Abs format (unit mm)*
G04 Created by KiCad (PCBNEW (5.1.4)-1) date 2021-07-20 11:22:30*
%MOMM*%
%LPD*%
G04 APERTURE LIST*
%ADD10C,0.300000*%
%ADD11C,0.250000*%
%ADD12C,0.200000*%
%ADD13C,0.150000*%
%ADD14C,0.120000*%
%ADD15C,2.650000*%
%ADD16C,2.650000*%
%ADD17C,4.387800*%
%ADD18C,2.150000*%
%ADD19R,2.100000X2.100000*%
%ADD20O,2.100000X2.100000*%
%ADD21C,3.448000*%
%ADD22O,2.000000X2.000000*%
%ADD23R,2.000000X2.000000*%
%ADD24C,1.187400*%
G04 APERTURE END LIST*
D10*
X244996952Y-101711011D02*
X244996952Y-99711011D01*
X244996952Y-100663392D02*
X243854095Y-100663392D01*
X243854095Y-101711011D02*
X243854095Y-99711011D01*
X242139809Y-101615773D02*
X242330285Y-101711011D01*
X242711238Y-101711011D01*
X242901714Y-101615773D01*
X242996952Y-101425297D01*
X242996952Y-100663392D01*
X242901714Y-100472916D01*
X242711238Y-100377678D01*
X242330285Y-100377678D01*
X242139809Y-100472916D01*
X242044571Y-100663392D01*
X242044571Y-100853869D01*
X242996952Y-101044345D01*
X239949333Y-100377678D02*
X239187428Y-100377678D01*
X239663619Y-99711011D02*
X239663619Y-101425297D01*
X239568380Y-101615773D01*
X239377904Y-101711011D01*
X239187428Y-101711011D01*
X238235047Y-101711011D02*
X238425523Y-101615773D01*
X238520761Y-101520535D01*
X238616000Y-101330059D01*
X238616000Y-100758630D01*
X238520761Y-100568154D01*
X238425523Y-100472916D01*
X238235047Y-100377678D01*
X237949333Y-100377678D01*
X237758857Y-100472916D01*
X237663619Y-100568154D01*
X237568380Y-100758630D01*
X237568380Y-101330059D01*
X237663619Y-101520535D01*
X237758857Y-101615773D01*
X237949333Y-101711011D01*
X238235047Y-101711011D01*
X235854095Y-100377678D02*
X235854095Y-101711011D01*
X236711238Y-100377678D02*
X236711238Y-101425297D01*
X236616000Y-101615773D01*
X236425523Y-101711011D01*
X236139809Y-101711011D01*
X235949333Y-101615773D01*
X235854095Y-101520535D01*
X234044571Y-101615773D02*
X234235047Y-101711011D01*
X234616000Y-101711011D01*
X234806476Y-101615773D01*
X234901714Y-101520535D01*
X234996952Y-101330059D01*
X234996952Y-100758630D01*
X234901714Y-100568154D01*
X234806476Y-100472916D01*
X234616000Y-100377678D01*
X234235047Y-100377678D01*
X234044571Y-100472916D01*
X233187428Y-101711011D02*
X233187428Y-99711011D01*
X232330285Y-101711011D02*
X232330285Y-100663392D01*
X232425523Y-100472916D01*
X232616000Y-100377678D01*
X232901714Y-100377678D01*
X233092190Y-100472916D01*
X233187428Y-100568154D01*
X230616000Y-101615773D02*
X230806476Y-101711011D01*
X231187428Y-101711011D01*
X231377904Y-101615773D01*
X231473142Y-101425297D01*
X231473142Y-100663392D01*
X231377904Y-100472916D01*
X231187428Y-100377678D01*
X230806476Y-100377678D01*
X230616000Y-100472916D01*
X230520761Y-100663392D01*
X230520761Y-100853869D01*
X231473142Y-101044345D01*
X228806476Y-101711011D02*
X228806476Y-99711011D01*
X228806476Y-101615773D02*
X228996952Y-101711011D01*
X229377904Y-101711011D01*
X229568380Y-101615773D01*
X229663619Y-101520535D01*
X229758857Y-101330059D01*
X229758857Y-100758630D01*
X229663619Y-100568154D01*
X229568380Y-100472916D01*
X229377904Y-100377678D01*
X228996952Y-100377678D01*
X228806476Y-100472916D01*
X226616000Y-100377678D02*
X225854095Y-100377678D01*
X226330285Y-99711011D02*
X226330285Y-101425297D01*
X226235047Y-101615773D01*
X226044571Y-101711011D01*
X225854095Y-101711011D01*
X225187428Y-101711011D02*
X225187428Y-99711011D01*
X224330285Y-101711011D02*
X224330285Y-100663392D01*
X224425523Y-100472916D01*
X224616000Y-100377678D01*
X224901714Y-100377678D01*
X225092190Y-100472916D01*
X225187428Y-100568154D01*
X222616000Y-101615773D02*
X222806476Y-101711011D01*
X223187428Y-101711011D01*
X223377904Y-101615773D01*
X223473142Y-101425297D01*
X223473142Y-100663392D01*
X223377904Y-100472916D01*
X223187428Y-100377678D01*
X222806476Y-100377678D01*
X222616000Y-100472916D01*
X222520761Y-100663392D01*
X222520761Y-100853869D01*
X223473142Y-101044345D01*
X220139809Y-101711011D02*
X220139809Y-99711011D01*
X220139809Y-100472916D02*
X219949333Y-100377678D01*
X219568380Y-100377678D01*
X219377904Y-100472916D01*
X219282666Y-100568154D01*
X219187428Y-100758630D01*
X219187428Y-101330059D01*
X219282666Y-101520535D01*
X219377904Y-101615773D01*
X219568380Y-101711011D01*
X219949333Y-101711011D01*
X220139809Y-101615773D01*
X217473142Y-100377678D02*
X217473142Y-101711011D01*
X218330285Y-100377678D02*
X218330285Y-101425297D01*
X218235047Y-101615773D01*
X218044571Y-101711011D01*
X217758857Y-101711011D01*
X217568380Y-101615773D01*
X217473142Y-101520535D01*
X216806476Y-100377678D02*
X216044571Y-100377678D01*
X216520761Y-99711011D02*
X216520761Y-101425297D01*
X216425523Y-101615773D01*
X216235047Y-101711011D01*
X216044571Y-101711011D01*
X215663619Y-100377678D02*
X214901714Y-100377678D01*
X215377904Y-99711011D02*
X215377904Y-101425297D01*
X215282666Y-101615773D01*
X215092190Y-101711011D01*
X214901714Y-101711011D01*
X214235047Y-101520535D02*
X214139809Y-101615773D01*
X214235047Y-101711011D01*
X214330285Y-101615773D01*
X214235047Y-101520535D01*
X214235047Y-101711011D01*
X245885904Y-82343583D02*
X244933523Y-82343583D01*
X246076380Y-82915011D02*
X245409714Y-80915011D01*
X244743047Y-82915011D01*
X243790666Y-82915011D02*
X243981142Y-82819773D01*
X244076380Y-82629297D01*
X244076380Y-80915011D01*
X242266857Y-82819773D02*
X242457333Y-82915011D01*
X242838285Y-82915011D01*
X243028761Y-82819773D01*
X243124000Y-82629297D01*
X243124000Y-81867392D01*
X243028761Y-81676916D01*
X242838285Y-81581678D01*
X242457333Y-81581678D01*
X242266857Y-81676916D01*
X242171619Y-81867392D01*
X242171619Y-82057869D01*
X243124000Y-82248345D01*
X240552571Y-82819773D02*
X240743047Y-82915011D01*
X241124000Y-82915011D01*
X241314476Y-82819773D01*
X241409714Y-82629297D01*
X241409714Y-81867392D01*
X241314476Y-81676916D01*
X241124000Y-81581678D01*
X240743047Y-81581678D01*
X240552571Y-81676916D01*
X240457333Y-81867392D01*
X240457333Y-82057869D01*
X241409714Y-82248345D01*
X239600190Y-82915011D02*
X239600190Y-80915011D01*
X238933523Y-82343583D01*
X238266857Y-80915011D01*
X238266857Y-82915011D01*
X236457333Y-82915011D02*
X236457333Y-81867392D01*
X236552571Y-81676916D01*
X236743047Y-81581678D01*
X237124000Y-81581678D01*
X237314476Y-81676916D01*
X236457333Y-82819773D02*
X236647809Y-82915011D01*
X237124000Y-82915011D01*
X237314476Y-82819773D01*
X237409714Y-82629297D01*
X237409714Y-82438821D01*
X237314476Y-82248345D01*
X237124000Y-82153107D01*
X236647809Y-82153107D01*
X236457333Y-82057869D01*
X234647809Y-82819773D02*
X234838285Y-82915011D01*
X235219238Y-82915011D01*
X235409714Y-82819773D01*
X235504952Y-82724535D01*
X235600190Y-82534059D01*
X235600190Y-81962630D01*
X235504952Y-81772154D01*
X235409714Y-81676916D01*
X235219238Y-81581678D01*
X234838285Y-81581678D01*
X234647809Y-81676916D01*
X233790666Y-82915011D02*
X233790666Y-81581678D01*
X233790666Y-81962630D02*
X233695428Y-81772154D01*
X233600190Y-81676916D01*
X233409714Y-81581678D01*
X233219238Y-81581678D01*
X232266857Y-82915011D02*
X232457333Y-82819773D01*
X232552571Y-82724535D01*
X232647809Y-82534059D01*
X232647809Y-81962630D01*
X232552571Y-81772154D01*
X232457333Y-81676916D01*
X232266857Y-81581678D01*
X231981142Y-81581678D01*
X231790666Y-81676916D01*
X231695428Y-81772154D01*
X231600190Y-81962630D01*
X231600190Y-82534059D01*
X231695428Y-82724535D01*
X231790666Y-82819773D01*
X231981142Y-82915011D01*
X232266857Y-82915011D01*
X229219238Y-82915011D02*
X229219238Y-80915011D01*
X228457333Y-80915011D01*
X228266857Y-81010250D01*
X228171619Y-81105488D01*
X228076380Y-81295964D01*
X228076380Y-81581678D01*
X228171619Y-81772154D01*
X228266857Y-81867392D01*
X228457333Y-81962630D01*
X229219238Y-81962630D01*
X226933523Y-82915011D02*
X227124000Y-82819773D01*
X227219238Y-82629297D01*
X227219238Y-80915011D01*
X225314476Y-82915011D02*
X225314476Y-81867392D01*
X225409714Y-81676916D01*
X225600190Y-81581678D01*
X225981142Y-81581678D01*
X226171619Y-81676916D01*
X225314476Y-82819773D02*
X225504952Y-82915011D01*
X225981142Y-82915011D01*
X226171619Y-82819773D01*
X226266857Y-82629297D01*
X226266857Y-82438821D01*
X226171619Y-82248345D01*
X225981142Y-82153107D01*
X225504952Y-82153107D01*
X225314476Y-82057869D01*
X224647809Y-81581678D02*
X223885904Y-81581678D01*
X224362095Y-80915011D02*
X224362095Y-82629297D01*
X224266857Y-82819773D01*
X224076380Y-82915011D01*
X223885904Y-82915011D01*
X222457333Y-82819773D02*
X222647809Y-82915011D01*
X223028761Y-82915011D01*
X223219238Y-82819773D01*
X223314476Y-82629297D01*
X223314476Y-81867392D01*
X223219238Y-81676916D01*
X223028761Y-81581678D01*
X222647809Y-81581678D01*
X222457333Y-81676916D01*
X222362095Y-81867392D01*
X222362095Y-82057869D01*
X223314476Y-82248345D01*
X220266857Y-80915011D02*
X219600190Y-82915011D01*
X218933523Y-80915011D01*
X217219238Y-82915011D02*
X218362095Y-82915011D01*
X217790666Y-82915011D02*
X217790666Y-80915011D01*
X217981142Y-81200726D01*
X218171619Y-81391202D01*
X218362095Y-81486440D01*
X216362095Y-82724535D02*
X216266857Y-82819773D01*
X216362095Y-82915011D01*
X216457333Y-82819773D01*
X216362095Y-82724535D01*
X216362095Y-82915011D01*
X215028761Y-80915011D02*
X214838285Y-80915011D01*
X214647809Y-81010250D01*
X214552571Y-81105488D01*
X214457333Y-81295964D01*
X214362095Y-81676916D01*
X214362095Y-82153107D01*
X214457333Y-82534059D01*
X214552571Y-82724535D01*
X214647809Y-82819773D01*
X214838285Y-82915011D01*
X215028761Y-82915011D01*
X215219238Y-82819773D01*
X215314476Y-82724535D01*
X215409714Y-82534059D01*
X215504952Y-82153107D01*
X215504952Y-81676916D01*
X215409714Y-81295964D01*
X215314476Y-81105488D01*
X215219238Y-81010250D01*
X215028761Y-80915011D01*
D11*
X138355857Y-134439000D02*
X137784428Y-134439000D01*
X138470142Y-134781857D02*
X138070142Y-133581857D01*
X137670142Y-134781857D01*
X137098714Y-134781857D02*
X137213000Y-134724714D01*
X137270142Y-134610428D01*
X137270142Y-133581857D01*
X136184428Y-134724714D02*
X136298714Y-134781857D01*
X136527285Y-134781857D01*
X136641571Y-134724714D01*
X136698714Y-134610428D01*
X136698714Y-134153285D01*
X136641571Y-134039000D01*
X136527285Y-133981857D01*
X136298714Y-133981857D01*
X136184428Y-134039000D01*
X136127285Y-134153285D01*
X136127285Y-134267571D01*
X136698714Y-134381857D01*
X135155857Y-134724714D02*
X135270142Y-134781857D01*
X135498714Y-134781857D01*
X135613000Y-134724714D01*
X135670142Y-134610428D01*
X135670142Y-134153285D01*
X135613000Y-134039000D01*
X135498714Y-133981857D01*
X135270142Y-133981857D01*
X135155857Y-134039000D01*
X135098714Y-134153285D01*
X135098714Y-134267571D01*
X135670142Y-134381857D01*
X134584428Y-134781857D02*
X134584428Y-133581857D01*
X134184428Y-134439000D01*
X133784428Y-133581857D01*
X133784428Y-134781857D01*
X132698714Y-134781857D02*
X132698714Y-134153285D01*
X132755857Y-134039000D01*
X132870142Y-133981857D01*
X133098714Y-133981857D01*
X133213000Y-134039000D01*
X132698714Y-134724714D02*
X132813000Y-134781857D01*
X133098714Y-134781857D01*
X133213000Y-134724714D01*
X133270142Y-134610428D01*
X133270142Y-134496142D01*
X133213000Y-134381857D01*
X133098714Y-134324714D01*
X132813000Y-134324714D01*
X132698714Y-134267571D01*
X131613000Y-134724714D02*
X131727285Y-134781857D01*
X131955857Y-134781857D01*
X132070142Y-134724714D01*
X132127285Y-134667571D01*
X132184428Y-134553285D01*
X132184428Y-134210428D01*
X132127285Y-134096142D01*
X132070142Y-134039000D01*
X131955857Y-133981857D01*
X131727285Y-133981857D01*
X131613000Y-134039000D01*
X131098714Y-134781857D02*
X131098714Y-133981857D01*
X131098714Y-134210428D02*
X131041571Y-134096142D01*
X130984428Y-134039000D01*
X130870142Y-133981857D01*
X130755857Y-133981857D01*
X130184428Y-134781857D02*
X130298714Y-134724714D01*
X130355857Y-134667571D01*
X130413000Y-134553285D01*
X130413000Y-134210428D01*
X130355857Y-134096142D01*
X130298714Y-134039000D01*
X130184428Y-133981857D01*
X130013000Y-133981857D01*
X129898714Y-134039000D01*
X129841571Y-134096142D01*
X129784428Y-134210428D01*
X129784428Y-134553285D01*
X129841571Y-134667571D01*
X129898714Y-134724714D01*
X130013000Y-134781857D01*
X130184428Y-134781857D01*
X128355857Y-134781857D02*
X128355857Y-133581857D01*
X127898714Y-133581857D01*
X127784428Y-133639000D01*
X127727285Y-133696142D01*
X127670142Y-133810428D01*
X127670142Y-133981857D01*
X127727285Y-134096142D01*
X127784428Y-134153285D01*
X127898714Y-134210428D01*
X128355857Y-134210428D01*
X126470142Y-134667571D02*
X126527285Y-134724714D01*
X126698714Y-134781857D01*
X126813000Y-134781857D01*
X126984428Y-134724714D01*
X127098714Y-134610428D01*
X127155857Y-134496142D01*
X127213000Y-134267571D01*
X127213000Y-134096142D01*
X127155857Y-133867571D01*
X127098714Y-133753285D01*
X126984428Y-133639000D01*
X126813000Y-133581857D01*
X126698714Y-133581857D01*
X126527285Y-133639000D01*
X126470142Y-133696142D01*
X125555857Y-134153285D02*
X125384428Y-134210428D01*
X125327285Y-134267571D01*
X125270142Y-134381857D01*
X125270142Y-134553285D01*
X125327285Y-134667571D01*
X125384428Y-134724714D01*
X125498714Y-134781857D01*
X125955857Y-134781857D01*
X125955857Y-133581857D01*
X125555857Y-133581857D01*
X125441571Y-133639000D01*
X125384428Y-133696142D01*
X125327285Y-133810428D01*
X125327285Y-133924714D01*
X125384428Y-134039000D01*
X125441571Y-134096142D01*
X125555857Y-134153285D01*
X125955857Y-134153285D01*
X124013000Y-133581857D02*
X123613000Y-134781857D01*
X123213000Y-133581857D01*
X122184428Y-134781857D02*
X122870142Y-134781857D01*
X122527285Y-134781857D02*
X122527285Y-133581857D01*
X122641571Y-133753285D01*
X122755857Y-133867571D01*
X122870142Y-133924714D01*
X121670142Y-134667571D02*
X121613000Y-134724714D01*
X121670142Y-134781857D01*
X121727285Y-134724714D01*
X121670142Y-134667571D01*
X121670142Y-134781857D01*
X120870142Y-133581857D02*
X120755857Y-133581857D01*
X120641571Y-133639000D01*
X120584428Y-133696142D01*
X120527285Y-133810428D01*
X120470142Y-134039000D01*
X120470142Y-134324714D01*
X120527285Y-134553285D01*
X120584428Y-134667571D01*
X120641571Y-134724714D01*
X120755857Y-134781857D01*
X120870142Y-134781857D01*
X120984428Y-134724714D01*
X121041571Y-134667571D01*
X121098714Y-134553285D01*
X121155857Y-134324714D01*
X121155857Y-134039000D01*
X121098714Y-133810428D01*
X121041571Y-133696142D01*
X120984428Y-133639000D01*
X120870142Y-133581857D01*
D12*
X181768750Y-48164750D02*
X181768750Y-46132750D01*
X183673750Y-48164750D02*
X181768750Y-48164750D01*
X178664761Y-48272380D02*
X178664761Y-47272380D01*
X178283809Y-47272380D01*
X178188571Y-47320000D01*
X178140952Y-47367619D01*
X178093333Y-47462857D01*
X178093333Y-47605714D01*
X178140952Y-47700952D01*
X178188571Y-47748571D01*
X178283809Y-47796190D01*
X178664761Y-47796190D01*
X177664761Y-48272380D02*
X177664761Y-47605714D01*
X177664761Y-47796190D02*
X177617142Y-47700952D01*
X177569523Y-47653333D01*
X177474285Y-47605714D01*
X177379047Y-47605714D01*
X176902857Y-48272380D02*
X176998095Y-48224761D01*
X177045714Y-48177142D01*
X177093333Y-48081904D01*
X177093333Y-47796190D01*
X177045714Y-47700952D01*
X176998095Y-47653333D01*
X176902857Y-47605714D01*
X176760000Y-47605714D01*
X176664761Y-47653333D01*
X176617142Y-47700952D01*
X176569523Y-47796190D01*
X176569523Y-48081904D01*
X176617142Y-48177142D01*
X176664761Y-48224761D01*
X176760000Y-48272380D01*
X176902857Y-48272380D01*
X175379047Y-48272380D02*
X175379047Y-47272380D01*
X175045714Y-47986666D01*
X174712380Y-47272380D01*
X174712380Y-48272380D01*
X174236190Y-48272380D02*
X174236190Y-47605714D01*
X174236190Y-47272380D02*
X174283809Y-47320000D01*
X174236190Y-47367619D01*
X174188571Y-47320000D01*
X174236190Y-47272380D01*
X174236190Y-47367619D01*
X173331428Y-48224761D02*
X173426666Y-48272380D01*
X173617142Y-48272380D01*
X173712380Y-48224761D01*
X173760000Y-48177142D01*
X173807619Y-48081904D01*
X173807619Y-47796190D01*
X173760000Y-47700952D01*
X173712380Y-47653333D01*
X173617142Y-47605714D01*
X173426666Y-47605714D01*
X173331428Y-47653333D01*
X172902857Y-48272380D02*
X172902857Y-47605714D01*
X172902857Y-47796190D02*
X172855238Y-47700952D01*
X172807619Y-47653333D01*
X172712380Y-47605714D01*
X172617142Y-47605714D01*
X172140952Y-48272380D02*
X172236190Y-48224761D01*
X172283809Y-48177142D01*
X172331428Y-48081904D01*
X172331428Y-47796190D01*
X172283809Y-47700952D01*
X172236190Y-47653333D01*
X172140952Y-47605714D01*
X171998095Y-47605714D01*
X171902857Y-47653333D01*
X171855238Y-47700952D01*
X171807619Y-47796190D01*
X171807619Y-48081904D01*
X171855238Y-48177142D01*
X171902857Y-48224761D01*
X171998095Y-48272380D01*
X172140952Y-48272380D01*
X178521904Y-51672380D02*
X178521904Y-50672380D01*
X178188571Y-51386666D01*
X177855238Y-50672380D01*
X177855238Y-51672380D01*
X177236190Y-51672380D02*
X177331428Y-51624761D01*
X177379047Y-51577142D01*
X177426666Y-51481904D01*
X177426666Y-51196190D01*
X177379047Y-51100952D01*
X177331428Y-51053333D01*
X177236190Y-51005714D01*
X177093333Y-51005714D01*
X176998095Y-51053333D01*
X176950476Y-51100952D01*
X176902857Y-51196190D01*
X176902857Y-51481904D01*
X176950476Y-51577142D01*
X176998095Y-51624761D01*
X177093333Y-51672380D01*
X177236190Y-51672380D01*
X176045714Y-51005714D02*
X176045714Y-51672380D01*
X176474285Y-51005714D02*
X176474285Y-51529523D01*
X176426666Y-51624761D01*
X176331428Y-51672380D01*
X176188571Y-51672380D01*
X176093333Y-51624761D01*
X176045714Y-51577142D01*
X175569523Y-51005714D02*
X175569523Y-51672380D01*
X175569523Y-51100952D02*
X175521904Y-51053333D01*
X175426666Y-51005714D01*
X175283809Y-51005714D01*
X175188571Y-51053333D01*
X175140952Y-51148571D01*
X175140952Y-51672380D01*
X174807619Y-51005714D02*
X174426666Y-51005714D01*
X174664761Y-50672380D02*
X174664761Y-51529523D01*
X174617142Y-51624761D01*
X174521904Y-51672380D01*
X174426666Y-51672380D01*
X173188571Y-51672380D02*
X173283809Y-51624761D01*
X173331428Y-51577142D01*
X173379047Y-51481904D01*
X173379047Y-51196190D01*
X173331428Y-51100952D01*
X173283809Y-51053333D01*
X173188571Y-51005714D01*
X173045714Y-51005714D01*
X172950476Y-51053333D01*
X172902857Y-51100952D01*
X172855238Y-51196190D01*
X172855238Y-51481904D01*
X172902857Y-51577142D01*
X172950476Y-51624761D01*
X173045714Y-51672380D01*
X173188571Y-51672380D01*
X172426666Y-51005714D02*
X172426666Y-51672380D01*
X172426666Y-51100952D02*
X172379047Y-51053333D01*
X172283809Y-51005714D01*
X172140952Y-51005714D01*
X172045714Y-51053333D01*
X171998095Y-51148571D01*
X171998095Y-51672380D01*
X178831428Y-52705714D02*
X178831428Y-53372380D01*
X179260000Y-52705714D02*
X179260000Y-53229523D01*
X179212380Y-53324761D01*
X179117142Y-53372380D01*
X178974285Y-53372380D01*
X178879047Y-53324761D01*
X178831428Y-53277142D01*
X178355238Y-52705714D02*
X178355238Y-53372380D01*
X178355238Y-52800952D02*
X178307619Y-52753333D01*
X178212380Y-52705714D01*
X178069523Y-52705714D01*
X177974285Y-52753333D01*
X177926666Y-52848571D01*
X177926666Y-53372380D01*
X177021904Y-53372380D02*
X177021904Y-52372380D01*
X177021904Y-53324761D02*
X177117142Y-53372380D01*
X177307619Y-53372380D01*
X177402857Y-53324761D01*
X177450476Y-53277142D01*
X177498095Y-53181904D01*
X177498095Y-52896190D01*
X177450476Y-52800952D01*
X177402857Y-52753333D01*
X177307619Y-52705714D01*
X177117142Y-52705714D01*
X177021904Y-52753333D01*
X176164761Y-53324761D02*
X176260000Y-53372380D01*
X176450476Y-53372380D01*
X176545714Y-53324761D01*
X176593333Y-53229523D01*
X176593333Y-52848571D01*
X176545714Y-52753333D01*
X176450476Y-52705714D01*
X176260000Y-52705714D01*
X176164761Y-52753333D01*
X176117142Y-52848571D01*
X176117142Y-52943809D01*
X176593333Y-53039047D01*
X175688571Y-53372380D02*
X175688571Y-52705714D01*
X175688571Y-52896190D02*
X175640952Y-52800952D01*
X175593333Y-52753333D01*
X175498095Y-52705714D01*
X175402857Y-52705714D01*
X175117142Y-53324761D02*
X175021904Y-53372380D01*
X174831428Y-53372380D01*
X174736190Y-53324761D01*
X174688571Y-53229523D01*
X174688571Y-53181904D01*
X174736190Y-53086666D01*
X174831428Y-53039047D01*
X174974285Y-53039047D01*
X175069523Y-52991428D01*
X175117142Y-52896190D01*
X175117142Y-52848571D01*
X175069523Y-52753333D01*
X174974285Y-52705714D01*
X174831428Y-52705714D01*
X174736190Y-52753333D01*
X174260000Y-53372380D02*
X174260000Y-52705714D01*
X174260000Y-52372380D02*
X174307619Y-52420000D01*
X174260000Y-52467619D01*
X174212380Y-52420000D01*
X174260000Y-52372380D01*
X174260000Y-52467619D01*
X173355238Y-53372380D02*
X173355238Y-52372380D01*
X173355238Y-53324761D02*
X173450476Y-53372380D01*
X173640952Y-53372380D01*
X173736190Y-53324761D01*
X173783809Y-53277142D01*
X173831428Y-53181904D01*
X173831428Y-52896190D01*
X173783809Y-52800952D01*
X173736190Y-52753333D01*
X173640952Y-52705714D01*
X173450476Y-52705714D01*
X173355238Y-52753333D01*
X172498095Y-53324761D02*
X172593333Y-53372380D01*
X172783809Y-53372380D01*
X172879047Y-53324761D01*
X172926666Y-53229523D01*
X172926666Y-52848571D01*
X172879047Y-52753333D01*
X172783809Y-52705714D01*
X172593333Y-52705714D01*
X172498095Y-52753333D01*
X172450476Y-52848571D01*
X172450476Y-52943809D01*
X172926666Y-53039047D01*
X171974285Y-53324761D02*
X171974285Y-53372380D01*
X172021904Y-53467619D01*
X172069523Y-53515238D01*
X180569523Y-55024761D02*
X180664761Y-55072380D01*
X180855238Y-55072380D01*
X180950476Y-55024761D01*
X180998095Y-54977142D01*
X181045714Y-54881904D01*
X181045714Y-54596190D01*
X180998095Y-54500952D01*
X180950476Y-54453333D01*
X180855238Y-54405714D01*
X180664761Y-54405714D01*
X180569523Y-54453333D01*
X179998095Y-55072380D02*
X180093333Y-55024761D01*
X180140952Y-54977142D01*
X180188571Y-54881904D01*
X180188571Y-54596190D01*
X180140952Y-54500952D01*
X180093333Y-54453333D01*
X179998095Y-54405714D01*
X179855238Y-54405714D01*
X179760000Y-54453333D01*
X179712380Y-54500952D01*
X179664761Y-54596190D01*
X179664761Y-54881904D01*
X179712380Y-54977142D01*
X179760000Y-55024761D01*
X179855238Y-55072380D01*
X179998095Y-55072380D01*
X179236190Y-55072380D02*
X179236190Y-54405714D01*
X179236190Y-54500952D02*
X179188571Y-54453333D01*
X179093333Y-54405714D01*
X178950476Y-54405714D01*
X178855238Y-54453333D01*
X178807619Y-54548571D01*
X178807619Y-55072380D01*
X178807619Y-54548571D02*
X178760000Y-54453333D01*
X178664761Y-54405714D01*
X178521904Y-54405714D01*
X178426666Y-54453333D01*
X178379047Y-54548571D01*
X178379047Y-55072380D01*
X177902857Y-54405714D02*
X177902857Y-55405714D01*
X177902857Y-54453333D02*
X177807619Y-54405714D01*
X177617142Y-54405714D01*
X177521904Y-54453333D01*
X177474285Y-54500952D01*
X177426666Y-54596190D01*
X177426666Y-54881904D01*
X177474285Y-54977142D01*
X177521904Y-55024761D01*
X177617142Y-55072380D01*
X177807619Y-55072380D01*
X177902857Y-55024761D01*
X176855238Y-55072380D02*
X176950476Y-55024761D01*
X176998095Y-54977142D01*
X177045714Y-54881904D01*
X177045714Y-54596190D01*
X176998095Y-54500952D01*
X176950476Y-54453333D01*
X176855238Y-54405714D01*
X176712380Y-54405714D01*
X176617142Y-54453333D01*
X176569523Y-54500952D01*
X176521904Y-54596190D01*
X176521904Y-54881904D01*
X176569523Y-54977142D01*
X176617142Y-55024761D01*
X176712380Y-55072380D01*
X176855238Y-55072380D01*
X176093333Y-54405714D02*
X176093333Y-55072380D01*
X176093333Y-54500952D02*
X176045714Y-54453333D01*
X175950476Y-54405714D01*
X175807619Y-54405714D01*
X175712380Y-54453333D01*
X175664761Y-54548571D01*
X175664761Y-55072380D01*
X174807619Y-55024761D02*
X174902857Y-55072380D01*
X175093333Y-55072380D01*
X175188571Y-55024761D01*
X175236190Y-54929523D01*
X175236190Y-54548571D01*
X175188571Y-54453333D01*
X175093333Y-54405714D01*
X174902857Y-54405714D01*
X174807619Y-54453333D01*
X174760000Y-54548571D01*
X174760000Y-54643809D01*
X175236190Y-54739047D01*
X174331428Y-54405714D02*
X174331428Y-55072380D01*
X174331428Y-54500952D02*
X174283809Y-54453333D01*
X174188571Y-54405714D01*
X174045714Y-54405714D01*
X173950476Y-54453333D01*
X173902857Y-54548571D01*
X173902857Y-55072380D01*
X173569523Y-54405714D02*
X173188571Y-54405714D01*
X173426666Y-54072380D02*
X173426666Y-54929523D01*
X173379047Y-55024761D01*
X173283809Y-55072380D01*
X173188571Y-55072380D01*
X172140952Y-55024761D02*
X172045714Y-55072380D01*
X171855238Y-55072380D01*
X171760000Y-55024761D01*
X171712380Y-54929523D01*
X171712380Y-54881904D01*
X171760000Y-54786666D01*
X171855238Y-54739047D01*
X171998095Y-54739047D01*
X172093333Y-54691428D01*
X172140952Y-54596190D01*
X172140952Y-54548571D01*
X172093333Y-54453333D01*
X171998095Y-54405714D01*
X171855238Y-54405714D01*
X171760000Y-54453333D01*
X171283809Y-55072380D02*
X171283809Y-54405714D01*
X171283809Y-54072380D02*
X171331428Y-54120000D01*
X171283809Y-54167619D01*
X171236190Y-54120000D01*
X171283809Y-54072380D01*
X171283809Y-54167619D01*
X170379047Y-55072380D02*
X170379047Y-54072380D01*
X170379047Y-55024761D02*
X170474285Y-55072380D01*
X170664761Y-55072380D01*
X170760000Y-55024761D01*
X170807619Y-54977142D01*
X170855238Y-54881904D01*
X170855238Y-54596190D01*
X170807619Y-54500952D01*
X170760000Y-54453333D01*
X170664761Y-54405714D01*
X170474285Y-54405714D01*
X170379047Y-54453333D01*
X169521904Y-55024761D02*
X169617142Y-55072380D01*
X169807619Y-55072380D01*
X169902857Y-55024761D01*
X169950476Y-54929523D01*
X169950476Y-54548571D01*
X169902857Y-54453333D01*
X169807619Y-54405714D01*
X169617142Y-54405714D01*
X169521904Y-54453333D01*
X169474285Y-54548571D01*
X169474285Y-54643809D01*
X169950476Y-54739047D01*
X176307619Y-56772380D02*
X176402857Y-56724761D01*
X176450476Y-56677142D01*
X176498095Y-56581904D01*
X176498095Y-56296190D01*
X176450476Y-56200952D01*
X176402857Y-56153333D01*
X176307619Y-56105714D01*
X176164761Y-56105714D01*
X176069523Y-56153333D01*
X176021904Y-56200952D01*
X175974285Y-56296190D01*
X175974285Y-56581904D01*
X176021904Y-56677142D01*
X176069523Y-56724761D01*
X176164761Y-56772380D01*
X176307619Y-56772380D01*
X175117142Y-56105714D02*
X175117142Y-56772380D01*
X175545714Y-56105714D02*
X175545714Y-56629523D01*
X175498095Y-56724761D01*
X175402857Y-56772380D01*
X175260000Y-56772380D01*
X175164761Y-56724761D01*
X175117142Y-56677142D01*
X174783809Y-56105714D02*
X174402857Y-56105714D01*
X174640952Y-55772380D02*
X174640952Y-56629523D01*
X174593333Y-56724761D01*
X174498095Y-56772380D01*
X174402857Y-56772380D01*
X174069523Y-56677142D02*
X174021904Y-56724761D01*
X174069523Y-56772380D01*
X174117142Y-56724761D01*
X174069523Y-56677142D01*
X174069523Y-56772380D01*
D13*
X166370000Y-76200000D02*
X184150000Y-76200000D01*
X166370000Y-45720000D02*
X166370000Y-76200000D01*
X171450000Y-45720000D02*
X166370000Y-45720000D01*
X171450000Y-43180000D02*
X171450000Y-45720000D01*
X179070000Y-43180000D02*
X171450000Y-43180000D01*
X179070000Y-45720000D02*
X179070000Y-43180000D01*
X184150000Y-45720000D02*
X179070000Y-45720000D01*
X184150000Y-45720000D02*
X184150000Y-76200000D01*
D14*
X149920000Y-55686000D02*
X147260000Y-55686000D01*
X149920000Y-53086000D02*
X149920000Y-55686000D01*
X147260000Y-53086000D02*
X147260000Y-55686000D01*
X149920000Y-53086000D02*
X147260000Y-53086000D01*
X149920000Y-51816000D02*
X149920000Y-50486000D01*
X149920000Y-50486000D02*
X148590000Y-50486000D01*
X118488000Y-63798000D02*
X118488000Y-61678000D01*
X122718000Y-62738000D02*
X121948000Y-62738000D01*
X117058000Y-62738000D02*
X117828000Y-62738000D01*
X121948000Y-63798000D02*
X117828000Y-63798000D01*
X121948000Y-61678000D02*
X121948000Y-63798000D01*
X117828000Y-61678000D02*
X121948000Y-61678000D01*
X117828000Y-63798000D02*
X117828000Y-61678000D01*
X137538000Y-63798000D02*
X137538000Y-61678000D01*
X141768000Y-62738000D02*
X140998000Y-62738000D01*
X136108000Y-62738000D02*
X136878000Y-62738000D01*
X140998000Y-63798000D02*
X136878000Y-63798000D01*
X140998000Y-61678000D02*
X140998000Y-63798000D01*
X136878000Y-61678000D02*
X140998000Y-61678000D01*
X136878000Y-63798000D02*
X136878000Y-61678000D01*
X156588000Y-63798000D02*
X156588000Y-61678000D01*
X160818000Y-62738000D02*
X160048000Y-62738000D01*
X155158000Y-62738000D02*
X155928000Y-62738000D01*
X160048000Y-63798000D02*
X155928000Y-63798000D01*
X160048000Y-61678000D02*
X160048000Y-63798000D01*
X155928000Y-61678000D02*
X160048000Y-61678000D01*
X155928000Y-63798000D02*
X155928000Y-61678000D01*
X118488000Y-82848000D02*
X118488000Y-80728000D01*
X122718000Y-81788000D02*
X121948000Y-81788000D01*
X117058000Y-81788000D02*
X117828000Y-81788000D01*
X121948000Y-82848000D02*
X117828000Y-82848000D01*
X121948000Y-80728000D02*
X121948000Y-82848000D01*
X117828000Y-80728000D02*
X121948000Y-80728000D01*
X117828000Y-82848000D02*
X117828000Y-80728000D01*
X136878000Y-82848000D02*
X136878000Y-80728000D01*
X136878000Y-80728000D02*
X140998000Y-80728000D01*
X140998000Y-80728000D02*
X140998000Y-82848000D01*
X140998000Y-82848000D02*
X136878000Y-82848000D01*
X136108000Y-81788000D02*
X136878000Y-81788000D01*
X141768000Y-81788000D02*
X140998000Y-81788000D01*
X137538000Y-82848000D02*
X137538000Y-80728000D01*
X156588000Y-82848000D02*
X156588000Y-80728000D01*
X160818000Y-81788000D02*
X160048000Y-81788000D01*
X155158000Y-81788000D02*
X155928000Y-81788000D01*
X160048000Y-82848000D02*
X155928000Y-82848000D01*
X160048000Y-80728000D02*
X160048000Y-82848000D01*
X155928000Y-80728000D02*
X160048000Y-80728000D01*
X155928000Y-82848000D02*
X155928000Y-80728000D01*
X130473000Y-90554000D02*
X128353000Y-90554000D01*
X129413000Y-86324000D02*
X129413000Y-87094000D01*
X129413000Y-91984000D02*
X129413000Y-91214000D01*
X130473000Y-87094000D02*
X130473000Y-91214000D01*
X128353000Y-87094000D02*
X130473000Y-87094000D01*
X128353000Y-91214000D02*
X128353000Y-87094000D01*
X130473000Y-91214000D02*
X128353000Y-91214000D01*
X149523000Y-91214000D02*
X147403000Y-91214000D01*
X147403000Y-91214000D02*
X147403000Y-87094000D01*
X147403000Y-87094000D02*
X149523000Y-87094000D01*
X149523000Y-87094000D02*
X149523000Y-91214000D01*
X148463000Y-91984000D02*
X148463000Y-91214000D01*
X148463000Y-86324000D02*
X148463000Y-87094000D01*
X149523000Y-90554000D02*
X147403000Y-90554000D01*
X168446000Y-95126000D02*
X166326000Y-95126000D01*
X167386000Y-90896000D02*
X167386000Y-91666000D01*
X167386000Y-96556000D02*
X167386000Y-95786000D01*
X168446000Y-91666000D02*
X168446000Y-95786000D01*
X166326000Y-91666000D02*
X168446000Y-91666000D01*
X166326000Y-95786000D02*
X166326000Y-91666000D01*
X168446000Y-95786000D02*
X166326000Y-95786000D01*
X166326000Y-81506000D02*
X168446000Y-81506000D01*
X168446000Y-81506000D02*
X168446000Y-85626000D01*
X168446000Y-85626000D02*
X166326000Y-85626000D01*
X166326000Y-85626000D02*
X166326000Y-81506000D01*
X167386000Y-80736000D02*
X167386000Y-81506000D01*
X167386000Y-86396000D02*
X167386000Y-85626000D01*
X166326000Y-82166000D02*
X168446000Y-82166000D01*
X118488000Y-101898000D02*
X118488000Y-99778000D01*
X122718000Y-100838000D02*
X121948000Y-100838000D01*
X117058000Y-100838000D02*
X117828000Y-100838000D01*
X121948000Y-101898000D02*
X117828000Y-101898000D01*
X121948000Y-99778000D02*
X121948000Y-101898000D01*
X117828000Y-99778000D02*
X121948000Y-99778000D01*
X117828000Y-101898000D02*
X117828000Y-99778000D01*
X137538000Y-101898000D02*
X137538000Y-99778000D01*
X141768000Y-100838000D02*
X140998000Y-100838000D01*
X136108000Y-100838000D02*
X136878000Y-100838000D01*
X140998000Y-101898000D02*
X136878000Y-101898000D01*
X140998000Y-99778000D02*
X140998000Y-101898000D01*
X136878000Y-99778000D02*
X140998000Y-99778000D01*
X136878000Y-101898000D02*
X136878000Y-99778000D01*
X156588000Y-101898000D02*
X156588000Y-99778000D01*
X160818000Y-100838000D02*
X160048000Y-100838000D01*
X155158000Y-100838000D02*
X155928000Y-100838000D01*
X160048000Y-101898000D02*
X155928000Y-101898000D01*
X160048000Y-99778000D02*
X160048000Y-101898000D01*
X155928000Y-99778000D02*
X160048000Y-99778000D01*
X155928000Y-101898000D02*
X155928000Y-99778000D01*
X174978000Y-101898000D02*
X174978000Y-99778000D01*
X174978000Y-99778000D02*
X179098000Y-99778000D01*
X179098000Y-99778000D02*
X179098000Y-101898000D01*
X179098000Y-101898000D02*
X174978000Y-101898000D01*
X174208000Y-100838000D02*
X174978000Y-100838000D01*
X179868000Y-100838000D02*
X179098000Y-100838000D01*
X175638000Y-101898000D02*
X175638000Y-99778000D01*
X130813000Y-118828000D02*
X130813000Y-120948000D01*
X126583000Y-119888000D02*
X127353000Y-119888000D01*
X132243000Y-119888000D02*
X131473000Y-119888000D01*
X127353000Y-118828000D02*
X131473000Y-118828000D01*
X127353000Y-120948000D02*
X127353000Y-118828000D01*
X131473000Y-120948000D02*
X127353000Y-120948000D01*
X131473000Y-118828000D02*
X131473000Y-120948000D01*
X147403000Y-125194000D02*
X149523000Y-125194000D01*
X149523000Y-125194000D02*
X149523000Y-129314000D01*
X149523000Y-129314000D02*
X147403000Y-129314000D01*
X147403000Y-129314000D02*
X147403000Y-125194000D01*
X148463000Y-124424000D02*
X148463000Y-125194000D01*
X148463000Y-130084000D02*
X148463000Y-129314000D01*
X147403000Y-125854000D02*
X149523000Y-125854000D01*
X155928000Y-120948000D02*
X155928000Y-118828000D01*
X155928000Y-118828000D02*
X160048000Y-118828000D01*
X160048000Y-118828000D02*
X160048000Y-120948000D01*
X160048000Y-120948000D02*
X155928000Y-120948000D01*
X155158000Y-119888000D02*
X155928000Y-119888000D01*
X160818000Y-119888000D02*
X160048000Y-119888000D01*
X156588000Y-120948000D02*
X156588000Y-118828000D01*
X168541250Y-122075000D02*
X166421250Y-122075000D01*
X166421250Y-122075000D02*
X166421250Y-117955000D01*
X166421250Y-117955000D02*
X168541250Y-117955000D01*
X168541250Y-117955000D02*
X168541250Y-122075000D01*
X167481250Y-122845000D02*
X167481250Y-122075000D01*
X167481250Y-117185000D02*
X167481250Y-117955000D01*
X168541250Y-121415000D02*
X166421250Y-121415000D01*
D13*
X120626095Y-65250380D02*
X120626095Y-64250380D01*
X120388000Y-64250380D01*
X120245142Y-64298000D01*
X120149904Y-64393238D01*
X120102285Y-64488476D01*
X120054666Y-64678952D01*
X120054666Y-64821809D01*
X120102285Y-65012285D01*
X120149904Y-65107523D01*
X120245142Y-65202761D01*
X120388000Y-65250380D01*
X120626095Y-65250380D01*
X119102285Y-65250380D02*
X119673714Y-65250380D01*
X119388000Y-65250380D02*
X119388000Y-64250380D01*
X119483238Y-64393238D01*
X119578476Y-64488476D01*
X119673714Y-64536095D01*
X139676095Y-65250380D02*
X139676095Y-64250380D01*
X139438000Y-64250380D01*
X139295142Y-64298000D01*
X139199904Y-64393238D01*
X139152285Y-64488476D01*
X139104666Y-64678952D01*
X139104666Y-64821809D01*
X139152285Y-65012285D01*
X139199904Y-65107523D01*
X139295142Y-65202761D01*
X139438000Y-65250380D01*
X139676095Y-65250380D01*
X138723714Y-64345619D02*
X138676095Y-64298000D01*
X138580857Y-64250380D01*
X138342761Y-64250380D01*
X138247523Y-64298000D01*
X138199904Y-64345619D01*
X138152285Y-64440857D01*
X138152285Y-64536095D01*
X138199904Y-64678952D01*
X138771333Y-65250380D01*
X138152285Y-65250380D01*
X158726095Y-65250380D02*
X158726095Y-64250380D01*
X158488000Y-64250380D01*
X158345142Y-64298000D01*
X158249904Y-64393238D01*
X158202285Y-64488476D01*
X158154666Y-64678952D01*
X158154666Y-64821809D01*
X158202285Y-65012285D01*
X158249904Y-65107523D01*
X158345142Y-65202761D01*
X158488000Y-65250380D01*
X158726095Y-65250380D01*
X157821333Y-64250380D02*
X157202285Y-64250380D01*
X157535619Y-64631333D01*
X157392761Y-64631333D01*
X157297523Y-64678952D01*
X157249904Y-64726571D01*
X157202285Y-64821809D01*
X157202285Y-65059904D01*
X157249904Y-65155142D01*
X157297523Y-65202761D01*
X157392761Y-65250380D01*
X157678476Y-65250380D01*
X157773714Y-65202761D01*
X157821333Y-65155142D01*
X120626095Y-84300380D02*
X120626095Y-83300380D01*
X120388000Y-83300380D01*
X120245142Y-83348000D01*
X120149904Y-83443238D01*
X120102285Y-83538476D01*
X120054666Y-83728952D01*
X120054666Y-83871809D01*
X120102285Y-84062285D01*
X120149904Y-84157523D01*
X120245142Y-84252761D01*
X120388000Y-84300380D01*
X120626095Y-84300380D01*
X119197523Y-83633714D02*
X119197523Y-84300380D01*
X119435619Y-83252761D02*
X119673714Y-83967047D01*
X119054666Y-83967047D01*
X139676095Y-84300380D02*
X139676095Y-83300380D01*
X139438000Y-83300380D01*
X139295142Y-83348000D01*
X139199904Y-83443238D01*
X139152285Y-83538476D01*
X139104666Y-83728952D01*
X139104666Y-83871809D01*
X139152285Y-84062285D01*
X139199904Y-84157523D01*
X139295142Y-84252761D01*
X139438000Y-84300380D01*
X139676095Y-84300380D01*
X138199904Y-83300380D02*
X138676095Y-83300380D01*
X138723714Y-83776571D01*
X138676095Y-83728952D01*
X138580857Y-83681333D01*
X138342761Y-83681333D01*
X138247523Y-83728952D01*
X138199904Y-83776571D01*
X138152285Y-83871809D01*
X138152285Y-84109904D01*
X138199904Y-84205142D01*
X138247523Y-84252761D01*
X138342761Y-84300380D01*
X138580857Y-84300380D01*
X138676095Y-84252761D01*
X138723714Y-84205142D01*
X158726095Y-84300380D02*
X158726095Y-83300380D01*
X158488000Y-83300380D01*
X158345142Y-83348000D01*
X158249904Y-83443238D01*
X158202285Y-83538476D01*
X158154666Y-83728952D01*
X158154666Y-83871809D01*
X158202285Y-84062285D01*
X158249904Y-84157523D01*
X158345142Y-84252761D01*
X158488000Y-84300380D01*
X158726095Y-84300380D01*
X157297523Y-83300380D02*
X157488000Y-83300380D01*
X157583238Y-83348000D01*
X157630857Y-83395619D01*
X157726095Y-83538476D01*
X157773714Y-83728952D01*
X157773714Y-84109904D01*
X157726095Y-84205142D01*
X157678476Y-84252761D01*
X157583238Y-84300380D01*
X157392761Y-84300380D01*
X157297523Y-84252761D01*
X157249904Y-84205142D01*
X157202285Y-84109904D01*
X157202285Y-83871809D01*
X157249904Y-83776571D01*
X157297523Y-83728952D01*
X157392761Y-83681333D01*
X157583238Y-83681333D01*
X157678476Y-83728952D01*
X157726095Y-83776571D01*
X157773714Y-83871809D01*
X131925380Y-88415904D02*
X130925380Y-88415904D01*
X130925380Y-88654000D01*
X130973000Y-88796857D01*
X131068238Y-88892095D01*
X131163476Y-88939714D01*
X131353952Y-88987333D01*
X131496809Y-88987333D01*
X131687285Y-88939714D01*
X131782523Y-88892095D01*
X131877761Y-88796857D01*
X131925380Y-88654000D01*
X131925380Y-88415904D01*
X130925380Y-89320666D02*
X130925380Y-89987333D01*
X131925380Y-89558761D01*
X150975380Y-88415904D02*
X149975380Y-88415904D01*
X149975380Y-88654000D01*
X150023000Y-88796857D01*
X150118238Y-88892095D01*
X150213476Y-88939714D01*
X150403952Y-88987333D01*
X150546809Y-88987333D01*
X150737285Y-88939714D01*
X150832523Y-88892095D01*
X150927761Y-88796857D01*
X150975380Y-88654000D01*
X150975380Y-88415904D01*
X150403952Y-89558761D02*
X150356333Y-89463523D01*
X150308714Y-89415904D01*
X150213476Y-89368285D01*
X150165857Y-89368285D01*
X150070619Y-89415904D01*
X150023000Y-89463523D01*
X149975380Y-89558761D01*
X149975380Y-89749238D01*
X150023000Y-89844476D01*
X150070619Y-89892095D01*
X150165857Y-89939714D01*
X150213476Y-89939714D01*
X150308714Y-89892095D01*
X150356333Y-89844476D01*
X150403952Y-89749238D01*
X150403952Y-89558761D01*
X150451571Y-89463523D01*
X150499190Y-89415904D01*
X150594428Y-89368285D01*
X150784904Y-89368285D01*
X150880142Y-89415904D01*
X150927761Y-89463523D01*
X150975380Y-89558761D01*
X150975380Y-89749238D01*
X150927761Y-89844476D01*
X150880142Y-89892095D01*
X150784904Y-89939714D01*
X150594428Y-89939714D01*
X150499190Y-89892095D01*
X150451571Y-89844476D01*
X150403952Y-89749238D01*
X169898380Y-92987904D02*
X168898380Y-92987904D01*
X168898380Y-93226000D01*
X168946000Y-93368857D01*
X169041238Y-93464095D01*
X169136476Y-93511714D01*
X169326952Y-93559333D01*
X169469809Y-93559333D01*
X169660285Y-93511714D01*
X169755523Y-93464095D01*
X169850761Y-93368857D01*
X169898380Y-93226000D01*
X169898380Y-92987904D01*
X169898380Y-94035523D02*
X169898380Y-94226000D01*
X169850761Y-94321238D01*
X169803142Y-94368857D01*
X169660285Y-94464095D01*
X169469809Y-94511714D01*
X169088857Y-94511714D01*
X168993619Y-94464095D01*
X168946000Y-94416476D01*
X168898380Y-94321238D01*
X168898380Y-94130761D01*
X168946000Y-94035523D01*
X168993619Y-93987904D01*
X169088857Y-93940285D01*
X169326952Y-93940285D01*
X169422190Y-93987904D01*
X169469809Y-94035523D01*
X169517428Y-94130761D01*
X169517428Y-94321238D01*
X169469809Y-94416476D01*
X169422190Y-94464095D01*
X169326952Y-94511714D01*
X165778380Y-82351714D02*
X164778380Y-82351714D01*
X164778380Y-82589809D01*
X164826000Y-82732666D01*
X164921238Y-82827904D01*
X165016476Y-82875523D01*
X165206952Y-82923142D01*
X165349809Y-82923142D01*
X165540285Y-82875523D01*
X165635523Y-82827904D01*
X165730761Y-82732666D01*
X165778380Y-82589809D01*
X165778380Y-82351714D01*
X165778380Y-83875523D02*
X165778380Y-83304095D01*
X165778380Y-83589809D02*
X164778380Y-83589809D01*
X164921238Y-83494571D01*
X165016476Y-83399333D01*
X165064095Y-83304095D01*
X164778380Y-84494571D02*
X164778380Y-84589809D01*
X164826000Y-84685047D01*
X164873619Y-84732666D01*
X164968857Y-84780285D01*
X165159333Y-84827904D01*
X165397428Y-84827904D01*
X165587904Y-84780285D01*
X165683142Y-84732666D01*
X165730761Y-84685047D01*
X165778380Y-84589809D01*
X165778380Y-84494571D01*
X165730761Y-84399333D01*
X165683142Y-84351714D01*
X165587904Y-84304095D01*
X165397428Y-84256476D01*
X165159333Y-84256476D01*
X164968857Y-84304095D01*
X164873619Y-84351714D01*
X164826000Y-84399333D01*
X164778380Y-84494571D01*
X121102285Y-103350380D02*
X121102285Y-102350380D01*
X120864190Y-102350380D01*
X120721333Y-102398000D01*
X120626095Y-102493238D01*
X120578476Y-102588476D01*
X120530857Y-102778952D01*
X120530857Y-102921809D01*
X120578476Y-103112285D01*
X120626095Y-103207523D01*
X120721333Y-103302761D01*
X120864190Y-103350380D01*
X121102285Y-103350380D01*
X119578476Y-103350380D02*
X120149904Y-103350380D01*
X119864190Y-103350380D02*
X119864190Y-102350380D01*
X119959428Y-102493238D01*
X120054666Y-102588476D01*
X120149904Y-102636095D01*
X118626095Y-103350380D02*
X119197523Y-103350380D01*
X118911809Y-103350380D02*
X118911809Y-102350380D01*
X119007047Y-102493238D01*
X119102285Y-102588476D01*
X119197523Y-102636095D01*
X140152285Y-103350380D02*
X140152285Y-102350380D01*
X139914190Y-102350380D01*
X139771333Y-102398000D01*
X139676095Y-102493238D01*
X139628476Y-102588476D01*
X139580857Y-102778952D01*
X139580857Y-102921809D01*
X139628476Y-103112285D01*
X139676095Y-103207523D01*
X139771333Y-103302761D01*
X139914190Y-103350380D01*
X140152285Y-103350380D01*
X138628476Y-103350380D02*
X139199904Y-103350380D01*
X138914190Y-103350380D02*
X138914190Y-102350380D01*
X139009428Y-102493238D01*
X139104666Y-102588476D01*
X139199904Y-102636095D01*
X138247523Y-102445619D02*
X138199904Y-102398000D01*
X138104666Y-102350380D01*
X137866571Y-102350380D01*
X137771333Y-102398000D01*
X137723714Y-102445619D01*
X137676095Y-102540857D01*
X137676095Y-102636095D01*
X137723714Y-102778952D01*
X138295142Y-103350380D01*
X137676095Y-103350380D01*
X159202285Y-103350380D02*
X159202285Y-102350380D01*
X158964190Y-102350380D01*
X158821333Y-102398000D01*
X158726095Y-102493238D01*
X158678476Y-102588476D01*
X158630857Y-102778952D01*
X158630857Y-102921809D01*
X158678476Y-103112285D01*
X158726095Y-103207523D01*
X158821333Y-103302761D01*
X158964190Y-103350380D01*
X159202285Y-103350380D01*
X157678476Y-103350380D02*
X158249904Y-103350380D01*
X157964190Y-103350380D02*
X157964190Y-102350380D01*
X158059428Y-102493238D01*
X158154666Y-102588476D01*
X158249904Y-102636095D01*
X157345142Y-102350380D02*
X156726095Y-102350380D01*
X157059428Y-102731333D01*
X156916571Y-102731333D01*
X156821333Y-102778952D01*
X156773714Y-102826571D01*
X156726095Y-102921809D01*
X156726095Y-103159904D01*
X156773714Y-103255142D01*
X156821333Y-103302761D01*
X156916571Y-103350380D01*
X157202285Y-103350380D01*
X157297523Y-103302761D01*
X157345142Y-103255142D01*
X178252285Y-103350380D02*
X178252285Y-102350380D01*
X178014190Y-102350380D01*
X177871333Y-102398000D01*
X177776095Y-102493238D01*
X177728476Y-102588476D01*
X177680857Y-102778952D01*
X177680857Y-102921809D01*
X177728476Y-103112285D01*
X177776095Y-103207523D01*
X177871333Y-103302761D01*
X178014190Y-103350380D01*
X178252285Y-103350380D01*
X176728476Y-103350380D02*
X177299904Y-103350380D01*
X177014190Y-103350380D02*
X177014190Y-102350380D01*
X177109428Y-102493238D01*
X177204666Y-102588476D01*
X177299904Y-102636095D01*
X175871333Y-102683714D02*
X175871333Y-103350380D01*
X176109428Y-102302761D02*
X176347523Y-103017047D01*
X175728476Y-103017047D01*
X130627285Y-118280380D02*
X130627285Y-117280380D01*
X130389190Y-117280380D01*
X130246333Y-117328000D01*
X130151095Y-117423238D01*
X130103476Y-117518476D01*
X130055857Y-117708952D01*
X130055857Y-117851809D01*
X130103476Y-118042285D01*
X130151095Y-118137523D01*
X130246333Y-118232761D01*
X130389190Y-118280380D01*
X130627285Y-118280380D01*
X129103476Y-118280380D02*
X129674904Y-118280380D01*
X129389190Y-118280380D02*
X129389190Y-117280380D01*
X129484428Y-117423238D01*
X129579666Y-117518476D01*
X129674904Y-117566095D01*
X128198714Y-117280380D02*
X128674904Y-117280380D01*
X128722523Y-117756571D01*
X128674904Y-117708952D01*
X128579666Y-117661333D01*
X128341571Y-117661333D01*
X128246333Y-117708952D01*
X128198714Y-117756571D01*
X128151095Y-117851809D01*
X128151095Y-118089904D01*
X128198714Y-118185142D01*
X128246333Y-118232761D01*
X128341571Y-118280380D01*
X128579666Y-118280380D01*
X128674904Y-118232761D01*
X128722523Y-118185142D01*
X146855380Y-126039714D02*
X145855380Y-126039714D01*
X145855380Y-126277809D01*
X145903000Y-126420666D01*
X145998238Y-126515904D01*
X146093476Y-126563523D01*
X146283952Y-126611142D01*
X146426809Y-126611142D01*
X146617285Y-126563523D01*
X146712523Y-126515904D01*
X146807761Y-126420666D01*
X146855380Y-126277809D01*
X146855380Y-126039714D01*
X146855380Y-127563523D02*
X146855380Y-126992095D01*
X146855380Y-127277809D02*
X145855380Y-127277809D01*
X145998238Y-127182571D01*
X146093476Y-127087333D01*
X146141095Y-126992095D01*
X145855380Y-128420666D02*
X145855380Y-128230190D01*
X145903000Y-128134952D01*
X145950619Y-128087333D01*
X146093476Y-127992095D01*
X146283952Y-127944476D01*
X146664904Y-127944476D01*
X146760142Y-127992095D01*
X146807761Y-128039714D01*
X146855380Y-128134952D01*
X146855380Y-128325428D01*
X146807761Y-128420666D01*
X146760142Y-128468285D01*
X146664904Y-128515904D01*
X146426809Y-128515904D01*
X146331571Y-128468285D01*
X146283952Y-128420666D01*
X146236333Y-128325428D01*
X146236333Y-128134952D01*
X146283952Y-128039714D01*
X146331571Y-127992095D01*
X146426809Y-127944476D01*
X159202285Y-122400380D02*
X159202285Y-121400380D01*
X158964190Y-121400380D01*
X158821333Y-121448000D01*
X158726095Y-121543238D01*
X158678476Y-121638476D01*
X158630857Y-121828952D01*
X158630857Y-121971809D01*
X158678476Y-122162285D01*
X158726095Y-122257523D01*
X158821333Y-122352761D01*
X158964190Y-122400380D01*
X159202285Y-122400380D01*
X157678476Y-122400380D02*
X158249904Y-122400380D01*
X157964190Y-122400380D02*
X157964190Y-121400380D01*
X158059428Y-121543238D01*
X158154666Y-121638476D01*
X158249904Y-121686095D01*
X157345142Y-121400380D02*
X156678476Y-121400380D01*
X157107047Y-122400380D01*
X169993630Y-118800714D02*
X168993630Y-118800714D01*
X168993630Y-119038809D01*
X169041250Y-119181666D01*
X169136488Y-119276904D01*
X169231726Y-119324523D01*
X169422202Y-119372142D01*
X169565059Y-119372142D01*
X169755535Y-119324523D01*
X169850773Y-119276904D01*
X169946011Y-119181666D01*
X169993630Y-119038809D01*
X169993630Y-118800714D01*
X169993630Y-120324523D02*
X169993630Y-119753095D01*
X169993630Y-120038809D02*
X168993630Y-120038809D01*
X169136488Y-119943571D01*
X169231726Y-119848333D01*
X169279345Y-119753095D01*
X169422202Y-120895952D02*
X169374583Y-120800714D01*
X169326964Y-120753095D01*
X169231726Y-120705476D01*
X169184107Y-120705476D01*
X169088869Y-120753095D01*
X169041250Y-120800714D01*
X168993630Y-120895952D01*
X168993630Y-121086428D01*
X169041250Y-121181666D01*
X169088869Y-121229285D01*
X169184107Y-121276904D01*
X169231726Y-121276904D01*
X169326964Y-121229285D01*
X169374583Y-121181666D01*
X169422202Y-121086428D01*
X169422202Y-120895952D01*
X169469821Y-120800714D01*
X169517440Y-120753095D01*
X169612678Y-120705476D01*
X169803154Y-120705476D01*
X169898392Y-120753095D01*
X169946011Y-120800714D01*
X169993630Y-120895952D01*
X169993630Y-121086428D01*
X169946011Y-121181666D01*
X169898392Y-121229285D01*
X169803154Y-121276904D01*
X169612678Y-121276904D01*
X169517440Y-121229285D01*
X169469821Y-121181666D01*
X169422202Y-121086428D01*
%LPC*%
D15*
X160476250Y-67441250D03*
D16*
X160456250Y-67731250D02*
X160496250Y-67151250D01*
D15*
X160496250Y-67151250D03*
X154801251Y-68961250D03*
D16*
X154146250Y-69691250D02*
X155456252Y-68231250D01*
D17*
X157956250Y-72231250D03*
D15*
X155456250Y-68231250D03*
D18*
X152876250Y-72231250D03*
X163036250Y-72231250D03*
D19*
X148590000Y-51816000D03*
D20*
X148590000Y-54356000D03*
D18*
X143986250Y-110331250D03*
X133826250Y-110331250D03*
D15*
X136406250Y-106331250D03*
D17*
X138906250Y-110331250D03*
D15*
X135751251Y-107061250D03*
D16*
X135096250Y-107791250D02*
X136406252Y-106331250D01*
D15*
X141446250Y-105251250D03*
X141426250Y-105541250D03*
D16*
X141406250Y-105831250D02*
X141446250Y-105251250D01*
D15*
X122376250Y-67441250D03*
D16*
X122356250Y-67731250D02*
X122396250Y-67151250D01*
D15*
X122396250Y-67151250D03*
X116701251Y-68961250D03*
D16*
X116046250Y-69691250D02*
X117356252Y-68231250D01*
D17*
X119856250Y-72231250D03*
D15*
X117356250Y-68231250D03*
D18*
X114776250Y-72231250D03*
X124936250Y-72231250D03*
D15*
X160476250Y-48391250D03*
D16*
X160456250Y-48681250D02*
X160496250Y-48101250D01*
D15*
X160496250Y-48101250D03*
X154801251Y-49911250D03*
D16*
X154146250Y-50641250D02*
X155456252Y-49181250D01*
D17*
X157956250Y-53181250D03*
D15*
X155456250Y-49181250D03*
D18*
X152876250Y-53181250D03*
X163036250Y-53181250D03*
X182086250Y-110331250D03*
X171926250Y-110331250D03*
D15*
X174506250Y-106331250D03*
D17*
X177006250Y-110331250D03*
D15*
X173851251Y-107061250D03*
D16*
X173196250Y-107791250D02*
X174506252Y-106331250D01*
D15*
X179546250Y-105251250D03*
X179526250Y-105541250D03*
D16*
X179506250Y-105831250D02*
X179546250Y-105251250D01*
D17*
X168751250Y-107918250D03*
X168751250Y-131794250D03*
D21*
X183991250Y-107918250D03*
X183991250Y-131794250D03*
D18*
X182086250Y-119856250D03*
X171926250Y-119856250D03*
D15*
X174506250Y-115856250D03*
D17*
X177006250Y-119856250D03*
D15*
X173851251Y-116586250D03*
D16*
X173196250Y-117316250D02*
X174506252Y-115856250D01*
D15*
X179546250Y-114776250D03*
X179526250Y-115066250D03*
D16*
X179506250Y-115356250D02*
X179546250Y-114776250D01*
D18*
X143986250Y-72231250D03*
X133826250Y-72231250D03*
D15*
X136406250Y-68231250D03*
D17*
X138906250Y-72231250D03*
D15*
X135751251Y-68961250D03*
D16*
X135096250Y-69691250D02*
X136406252Y-68231250D01*
D15*
X141446250Y-67151250D03*
X141426250Y-67441250D03*
D16*
X141406250Y-67731250D02*
X141446250Y-67151250D01*
D18*
X124936250Y-91281250D03*
X114776250Y-91281250D03*
D15*
X117356250Y-87281250D03*
D17*
X119856250Y-91281250D03*
D15*
X116701251Y-88011250D03*
D16*
X116046250Y-88741250D02*
X117356252Y-87281250D01*
D15*
X122396250Y-86201250D03*
X122376250Y-86491250D03*
D16*
X122356250Y-86781250D02*
X122396250Y-86201250D01*
D18*
X143986250Y-91281250D03*
X133826250Y-91281250D03*
D15*
X136406250Y-87281250D03*
D17*
X138906250Y-91281250D03*
D15*
X135751251Y-88011250D03*
D16*
X135096250Y-88741250D02*
X136406252Y-87281250D01*
D15*
X141446250Y-86201250D03*
X141426250Y-86491250D03*
D16*
X141406250Y-86781250D02*
X141446250Y-86201250D01*
D22*
X123698000Y-62738000D03*
D23*
X116078000Y-62738000D03*
D22*
X142748000Y-62738000D03*
D23*
X135128000Y-62738000D03*
D22*
X161798000Y-62738000D03*
D23*
X154178000Y-62738000D03*
D22*
X123698000Y-81788000D03*
D23*
X116078000Y-81788000D03*
X135128000Y-81788000D03*
D22*
X142748000Y-81788000D03*
X161798000Y-81788000D03*
D23*
X154178000Y-81788000D03*
D22*
X129413000Y-85344000D03*
D23*
X129413000Y-92964000D03*
X148463000Y-92964000D03*
D22*
X148463000Y-85344000D03*
X167386000Y-89916000D03*
D23*
X167386000Y-97536000D03*
X167386000Y-79756000D03*
D22*
X167386000Y-87376000D03*
X123698000Y-100838000D03*
D23*
X116078000Y-100838000D03*
D22*
X142748000Y-100838000D03*
D23*
X135128000Y-100838000D03*
D22*
X161798000Y-100838000D03*
D23*
X154178000Y-100838000D03*
X173228000Y-100838000D03*
D22*
X180848000Y-100838000D03*
X125603000Y-119888000D03*
D23*
X133223000Y-119888000D03*
X148463000Y-123444000D03*
D22*
X148463000Y-131064000D03*
D23*
X154178000Y-119888000D03*
D22*
X161798000Y-119888000D03*
D23*
X167481250Y-123825000D03*
D22*
X167481250Y-116205000D03*
D15*
X122376250Y-48391250D03*
D16*
X122356250Y-48681250D02*
X122396250Y-48101250D01*
D15*
X122396250Y-48101250D03*
X116701251Y-49911250D03*
D16*
X116046250Y-50641250D02*
X117356252Y-49181250D01*
D17*
X119856250Y-53181250D03*
D15*
X117356250Y-49181250D03*
D18*
X114776250Y-53181250D03*
X124936250Y-53181250D03*
X143986250Y-53181250D03*
X133826250Y-53181250D03*
D15*
X136406250Y-49181250D03*
D17*
X138906250Y-53181250D03*
D15*
X135751251Y-49911250D03*
D16*
X135096250Y-50641250D02*
X136406252Y-49181250D01*
D15*
X141446250Y-48101250D03*
X141426250Y-48391250D03*
D16*
X141406250Y-48681250D02*
X141446250Y-48101250D01*
D18*
X163036250Y-91281250D03*
X152876250Y-91281250D03*
D15*
X155456250Y-87281250D03*
D17*
X157956250Y-91281250D03*
D15*
X154801251Y-88011250D03*
D16*
X154146250Y-88741250D02*
X155456252Y-87281250D01*
D15*
X160496250Y-86201250D03*
X160476250Y-86491250D03*
D16*
X160456250Y-86781250D02*
X160496250Y-86201250D01*
D15*
X179526250Y-86491250D03*
D16*
X179506250Y-86781250D02*
X179546250Y-86201250D01*
D15*
X179546250Y-86201250D03*
X173851251Y-88011250D03*
D16*
X173196250Y-88741250D02*
X174506252Y-87281250D01*
D17*
X177006250Y-91281250D03*
D15*
X174506250Y-87281250D03*
D18*
X171926250Y-91281250D03*
X182086250Y-91281250D03*
D15*
X122376250Y-105541250D03*
D16*
X122356250Y-105831250D02*
X122396250Y-105251250D01*
D15*
X122396250Y-105251250D03*
X116701251Y-107061250D03*
D16*
X116046250Y-107791250D02*
X117356252Y-106331250D01*
D17*
X119856250Y-110331250D03*
D15*
X117356250Y-106331250D03*
D18*
X114776250Y-110331250D03*
X124936250Y-110331250D03*
D15*
X160476250Y-105541250D03*
D16*
X160456250Y-105831250D02*
X160496250Y-105251250D01*
D15*
X160496250Y-105251250D03*
X154801251Y-107061250D03*
D16*
X154146250Y-107791250D02*
X155456252Y-106331250D01*
D17*
X157956250Y-110331250D03*
D15*
X155456250Y-106331250D03*
D18*
X152876250Y-110331250D03*
X163036250Y-110331250D03*
D15*
X122376250Y-124591250D03*
D16*
X122356250Y-124881250D02*
X122396250Y-124301250D01*
D15*
X122396250Y-124301250D03*
X116701251Y-126111250D03*
D16*
X116046250Y-126841250D02*
X117356252Y-125381250D01*
D17*
X119856250Y-129381250D03*
D15*
X117356250Y-125381250D03*
D18*
X114776250Y-129381250D03*
X124936250Y-129381250D03*
X143986250Y-129381250D03*
X133826250Y-129381250D03*
D15*
X136406250Y-125381250D03*
D17*
X138906250Y-129381250D03*
D15*
X135751251Y-126111250D03*
D16*
X135096250Y-126841250D02*
X136406252Y-125381250D01*
D15*
X141446250Y-124301250D03*
X141426250Y-124591250D03*
D16*
X141406250Y-124881250D02*
X141446250Y-124301250D01*
D15*
X160476250Y-124591250D03*
D16*
X160456250Y-124881250D02*
X160496250Y-124301250D01*
D15*
X160496250Y-124301250D03*
X154801251Y-126111250D03*
D16*
X154146250Y-126841250D02*
X155456252Y-125381250D01*
D17*
X157956250Y-129381250D03*
D15*
X155456250Y-125381250D03*
D18*
X152876250Y-129381250D03*
X163036250Y-129381250D03*
X182086250Y-129381250D03*
X171926250Y-129381250D03*
D15*
X174506250Y-125381250D03*
D17*
X177006250Y-129381250D03*
D15*
X173851251Y-126111250D03*
D16*
X173196250Y-126841250D02*
X174506252Y-125381250D01*
D15*
X179546250Y-124301250D03*
X179526250Y-124591250D03*
D16*
X179506250Y-124881250D02*
X179546250Y-124301250D01*
D15*
X131901250Y-124591250D03*
D16*
X131881250Y-124881250D02*
X131921250Y-124301250D01*
D15*
X131921250Y-124301250D03*
X126226251Y-126111250D03*
D16*
X125571250Y-126841250D02*
X126881252Y-125381250D01*
D17*
X129381250Y-129381250D03*
D15*
X126881250Y-125381250D03*
D18*
X124301250Y-129381250D03*
X134461250Y-129381250D03*
D21*
X117443250Y-136366250D03*
X141319250Y-136366250D03*
D17*
X117443250Y-121126250D03*
X141319250Y-121126250D03*
D24*
X185483500Y-65246250D03*
X185483500Y-63976250D03*
X185483500Y-60166250D03*
X185483500Y-61436250D03*
X185483500Y-62706250D03*
X188372750Y-62706250D03*
X188372750Y-63976250D03*
X188372750Y-65246250D03*
X188372750Y-61436250D03*
X188372750Y-60166250D03*
X185483500Y-122396250D03*
X185483500Y-121126250D03*
X185483500Y-117316250D03*
X185483500Y-118586250D03*
X185483500Y-119856250D03*
X188372750Y-119856250D03*
X188372750Y-121126250D03*
X188372750Y-122396250D03*
X188372750Y-118586250D03*
X188372750Y-117316250D03*
X108489750Y-65246250D03*
X108489750Y-63976250D03*
X108489750Y-60166250D03*
X108489750Y-61436250D03*
X108489750Y-62706250D03*
X111379000Y-62706250D03*
X111379000Y-63976250D03*
X111379000Y-65246250D03*
X111379000Y-61436250D03*
X111379000Y-60166250D03*
X108489750Y-122396250D03*
X108489750Y-121126250D03*
X108489750Y-117316250D03*
X108489750Y-118586250D03*
X108489750Y-119856250D03*
X111379000Y-119856250D03*
X111379000Y-121126250D03*
X111379000Y-122396250D03*
X111379000Y-118586250D03*
X111379000Y-117316250D03*
M02*
