G04 #@! TF.GenerationSoftware,KiCad,Pcbnew,(5.1.4)-1*
G04 #@! TF.CreationDate,2021-07-20T11:22:30+01:00*
G04 #@! TF.ProjectId,AleeMacro,416c6565-4d61-4637-926f-2e6b69636164,rev?*
G04 #@! TF.SameCoordinates,Original*
G04 #@! TF.FileFunction,Soldermask,Top*
G04 #@! TF.FilePolarity,Negative*
%FSLAX46Y46*%
G04 Gerber Fmt 4.6, Leading zero omitted, Abs format (unit mm)*
G04 Created by KiCad (PCBNEW (5.1.4)-1) date 2021-07-20 11:22:30*
%MOMM*%
%LPD*%
G04 APERTURE LIST*
%ADD10C,1.797000*%
%ADD11C,4.387800*%
%ADD12C,2.150000*%
%ADD13C,2.000000*%
%ADD14R,2.000000X2.000000*%
%ADD15R,2.100000X2.100000*%
%ADD16O,2.100000X2.100000*%
%ADD17C,3.448000*%
%ADD18O,2.000000X2.000000*%
%ADD19C,1.187400*%
G04 APERTURE END LIST*
D10*
X173228000Y-82550000D03*
X175768000Y-82550000D03*
X178308000Y-82550000D03*
X180848000Y-82550000D03*
D11*
X157956250Y-72231250D03*
D12*
X152876250Y-72231250D03*
X163036250Y-72231250D03*
D13*
X167640000Y-46990000D03*
X167640000Y-49530000D03*
X167640000Y-52070000D03*
X167640000Y-54610000D03*
X167640000Y-57150000D03*
X167640000Y-59690000D03*
X167640000Y-62230000D03*
X167640000Y-64770000D03*
X167640000Y-67310000D03*
X167640000Y-69850000D03*
X167640000Y-72390000D03*
X167640000Y-74930000D03*
X182880000Y-74930000D03*
X182880000Y-72390000D03*
X182880000Y-69850000D03*
X182880000Y-67310000D03*
X182880000Y-64770000D03*
X182880000Y-62230000D03*
X182880000Y-59690000D03*
X182880000Y-57150000D03*
X182880000Y-54610000D03*
X182880000Y-52070000D03*
X182880000Y-49530000D03*
D14*
X182880000Y-46990000D03*
D15*
X148590000Y-51816000D03*
D16*
X148590000Y-54356000D03*
D12*
X143986250Y-110331250D03*
X133826250Y-110331250D03*
D11*
X138906250Y-110331250D03*
X119856250Y-72231250D03*
D12*
X114776250Y-72231250D03*
X124936250Y-72231250D03*
D11*
X157956250Y-53181250D03*
D12*
X152876250Y-53181250D03*
X163036250Y-53181250D03*
X182086250Y-110331250D03*
X171926250Y-110331250D03*
D11*
X177006250Y-110331250D03*
X168751250Y-107918250D03*
X168751250Y-131794250D03*
D17*
X183991250Y-107918250D03*
X183991250Y-131794250D03*
D12*
X182086250Y-119856250D03*
X171926250Y-119856250D03*
D11*
X177006250Y-119856250D03*
D12*
X143986250Y-72231250D03*
X133826250Y-72231250D03*
D11*
X138906250Y-72231250D03*
D12*
X124936250Y-91281250D03*
X114776250Y-91281250D03*
D11*
X119856250Y-91281250D03*
D12*
X143986250Y-91281250D03*
X133826250Y-91281250D03*
D11*
X138906250Y-91281250D03*
D18*
X123698000Y-62738000D03*
D14*
X116078000Y-62738000D03*
D18*
X142748000Y-62738000D03*
D14*
X135128000Y-62738000D03*
D18*
X161798000Y-62738000D03*
D14*
X154178000Y-62738000D03*
D18*
X123698000Y-81788000D03*
D14*
X116078000Y-81788000D03*
X135128000Y-81788000D03*
D18*
X142748000Y-81788000D03*
X161798000Y-81788000D03*
D14*
X154178000Y-81788000D03*
D18*
X129413000Y-85344000D03*
D14*
X129413000Y-92964000D03*
X148463000Y-92964000D03*
D18*
X148463000Y-85344000D03*
X167386000Y-89916000D03*
D14*
X167386000Y-97536000D03*
X167386000Y-79756000D03*
D18*
X167386000Y-87376000D03*
X123698000Y-100838000D03*
D14*
X116078000Y-100838000D03*
D18*
X142748000Y-100838000D03*
D14*
X135128000Y-100838000D03*
D18*
X161798000Y-100838000D03*
D14*
X154178000Y-100838000D03*
X173228000Y-100838000D03*
D18*
X180848000Y-100838000D03*
X125603000Y-119888000D03*
D14*
X133223000Y-119888000D03*
X148463000Y-123444000D03*
D18*
X148463000Y-131064000D03*
D14*
X154178000Y-119888000D03*
D18*
X161798000Y-119888000D03*
D14*
X167481250Y-123825000D03*
D18*
X167481250Y-116205000D03*
D11*
X119856250Y-53181250D03*
D12*
X114776250Y-53181250D03*
X124936250Y-53181250D03*
X143986250Y-53181250D03*
X133826250Y-53181250D03*
D11*
X138906250Y-53181250D03*
D12*
X163036250Y-91281250D03*
X152876250Y-91281250D03*
D11*
X157956250Y-91281250D03*
X177006250Y-91281250D03*
D12*
X171926250Y-91281250D03*
X182086250Y-91281250D03*
D11*
X119856250Y-110331250D03*
D12*
X114776250Y-110331250D03*
X124936250Y-110331250D03*
D11*
X157956250Y-110331250D03*
D12*
X152876250Y-110331250D03*
X163036250Y-110331250D03*
D11*
X119856250Y-129381250D03*
D12*
X114776250Y-129381250D03*
X124936250Y-129381250D03*
X143986250Y-129381250D03*
X133826250Y-129381250D03*
D11*
X138906250Y-129381250D03*
X157956250Y-129381250D03*
D12*
X152876250Y-129381250D03*
X163036250Y-129381250D03*
X182086250Y-129381250D03*
X171926250Y-129381250D03*
D11*
X177006250Y-129381250D03*
X129381250Y-129381250D03*
D12*
X124301250Y-129381250D03*
X134461250Y-129381250D03*
D17*
X117443250Y-136366250D03*
X141319250Y-136366250D03*
D11*
X117443250Y-121126250D03*
X141319250Y-121126250D03*
D19*
X185483500Y-65246250D03*
X185483500Y-63976250D03*
X185483500Y-60166250D03*
X185483500Y-61436250D03*
X185483500Y-62706250D03*
X188372750Y-62706250D03*
X188372750Y-63976250D03*
X188372750Y-65246250D03*
X188372750Y-61436250D03*
X188372750Y-60166250D03*
X185483500Y-122396250D03*
X185483500Y-121126250D03*
X185483500Y-117316250D03*
X185483500Y-118586250D03*
X185483500Y-119856250D03*
X188372750Y-119856250D03*
X188372750Y-121126250D03*
X188372750Y-122396250D03*
X188372750Y-118586250D03*
X188372750Y-117316250D03*
X108489750Y-65246250D03*
X108489750Y-63976250D03*
X108489750Y-60166250D03*
X108489750Y-61436250D03*
X108489750Y-62706250D03*
X111379000Y-62706250D03*
X111379000Y-63976250D03*
X111379000Y-65246250D03*
X111379000Y-61436250D03*
X111379000Y-60166250D03*
X108489750Y-122396250D03*
X108489750Y-121126250D03*
X108489750Y-117316250D03*
X108489750Y-118586250D03*
X108489750Y-119856250D03*
X111379000Y-119856250D03*
X111379000Y-121126250D03*
X111379000Y-122396250D03*
X111379000Y-118586250D03*
X111379000Y-117316250D03*
M02*
