G04 #@! TF.GenerationSoftware,KiCad,Pcbnew,(5.1.4)-1*
G04 #@! TF.CreationDate,2021-07-20T11:20:00+01:00*
G04 #@! TF.ProjectId,AleeMacro,416c6565-4d61-4637-926f-2e6b69636164,rev?*
G04 #@! TF.SameCoordinates,Original*
G04 #@! TF.FileFunction,Soldermask,Bot*
G04 #@! TF.FilePolarity,Negative*
%FSLAX46Y46*%
G04 Gerber Fmt 4.6, Leading zero omitted, Abs format (unit mm)*
G04 Created by KiCad (PCBNEW (5.1.4)-1) date 2021-07-20 11:20:00*
%MOMM*%
%LPD*%
G04 APERTURE LIST*
%ADD10C,2.650000*%
%ADD11C,2.650000*%
%ADD12C,4.387800*%
%ADD13C,2.150000*%
%ADD14R,2.100000X2.100000*%
%ADD15O,2.100000X2.100000*%
%ADD16C,3.448000*%
%ADD17O,2.000000X2.000000*%
%ADD18R,2.000000X2.000000*%
%ADD19C,1.187400*%
G04 APERTURE END LIST*
D10*
X160476250Y-67441250D03*
D11*
X160456250Y-67731250D02*
X160496250Y-67151250D01*
D10*
X160496250Y-67151250D03*
X154801251Y-68961250D03*
D11*
X154146250Y-69691250D02*
X155456252Y-68231250D01*
D12*
X157956250Y-72231250D03*
D10*
X155456250Y-68231250D03*
D13*
X152876250Y-72231250D03*
X163036250Y-72231250D03*
D14*
X148590000Y-51816000D03*
D15*
X148590000Y-54356000D03*
D13*
X143986250Y-110331250D03*
X133826250Y-110331250D03*
D10*
X136406250Y-106331250D03*
D12*
X138906250Y-110331250D03*
D10*
X135751251Y-107061250D03*
D11*
X135096250Y-107791250D02*
X136406252Y-106331250D01*
D10*
X141446250Y-105251250D03*
X141426250Y-105541250D03*
D11*
X141406250Y-105831250D02*
X141446250Y-105251250D01*
D10*
X122376250Y-67441250D03*
D11*
X122356250Y-67731250D02*
X122396250Y-67151250D01*
D10*
X122396250Y-67151250D03*
X116701251Y-68961250D03*
D11*
X116046250Y-69691250D02*
X117356252Y-68231250D01*
D12*
X119856250Y-72231250D03*
D10*
X117356250Y-68231250D03*
D13*
X114776250Y-72231250D03*
X124936250Y-72231250D03*
D10*
X160476250Y-48391250D03*
D11*
X160456250Y-48681250D02*
X160496250Y-48101250D01*
D10*
X160496250Y-48101250D03*
X154801251Y-49911250D03*
D11*
X154146250Y-50641250D02*
X155456252Y-49181250D01*
D12*
X157956250Y-53181250D03*
D10*
X155456250Y-49181250D03*
D13*
X152876250Y-53181250D03*
X163036250Y-53181250D03*
X182086250Y-110331250D03*
X171926250Y-110331250D03*
D10*
X174506250Y-106331250D03*
D12*
X177006250Y-110331250D03*
D10*
X173851251Y-107061250D03*
D11*
X173196250Y-107791250D02*
X174506252Y-106331250D01*
D10*
X179546250Y-105251250D03*
X179526250Y-105541250D03*
D11*
X179506250Y-105831250D02*
X179546250Y-105251250D01*
D12*
X168751250Y-107918250D03*
X168751250Y-131794250D03*
D16*
X183991250Y-107918250D03*
X183991250Y-131794250D03*
D13*
X182086250Y-119856250D03*
X171926250Y-119856250D03*
D10*
X174506250Y-115856250D03*
D12*
X177006250Y-119856250D03*
D10*
X173851251Y-116586250D03*
D11*
X173196250Y-117316250D02*
X174506252Y-115856250D01*
D10*
X179546250Y-114776250D03*
X179526250Y-115066250D03*
D11*
X179506250Y-115356250D02*
X179546250Y-114776250D01*
D13*
X143986250Y-72231250D03*
X133826250Y-72231250D03*
D10*
X136406250Y-68231250D03*
D12*
X138906250Y-72231250D03*
D10*
X135751251Y-68961250D03*
D11*
X135096250Y-69691250D02*
X136406252Y-68231250D01*
D10*
X141446250Y-67151250D03*
X141426250Y-67441250D03*
D11*
X141406250Y-67731250D02*
X141446250Y-67151250D01*
D13*
X124936250Y-91281250D03*
X114776250Y-91281250D03*
D10*
X117356250Y-87281250D03*
D12*
X119856250Y-91281250D03*
D10*
X116701251Y-88011250D03*
D11*
X116046250Y-88741250D02*
X117356252Y-87281250D01*
D10*
X122396250Y-86201250D03*
X122376250Y-86491250D03*
D11*
X122356250Y-86781250D02*
X122396250Y-86201250D01*
D13*
X143986250Y-91281250D03*
X133826250Y-91281250D03*
D10*
X136406250Y-87281250D03*
D12*
X138906250Y-91281250D03*
D10*
X135751251Y-88011250D03*
D11*
X135096250Y-88741250D02*
X136406252Y-87281250D01*
D10*
X141446250Y-86201250D03*
X141426250Y-86491250D03*
D11*
X141406250Y-86781250D02*
X141446250Y-86201250D01*
D17*
X123698000Y-62738000D03*
D18*
X116078000Y-62738000D03*
D17*
X142748000Y-62738000D03*
D18*
X135128000Y-62738000D03*
D17*
X161798000Y-62738000D03*
D18*
X154178000Y-62738000D03*
D17*
X123698000Y-81788000D03*
D18*
X116078000Y-81788000D03*
X135128000Y-81788000D03*
D17*
X142748000Y-81788000D03*
X161798000Y-81788000D03*
D18*
X154178000Y-81788000D03*
D17*
X129413000Y-85344000D03*
D18*
X129413000Y-92964000D03*
X148463000Y-92964000D03*
D17*
X148463000Y-85344000D03*
X167386000Y-89916000D03*
D18*
X167386000Y-97536000D03*
X167386000Y-79756000D03*
D17*
X167386000Y-87376000D03*
X123698000Y-100838000D03*
D18*
X116078000Y-100838000D03*
D17*
X142748000Y-100838000D03*
D18*
X135128000Y-100838000D03*
D17*
X161798000Y-100838000D03*
D18*
X154178000Y-100838000D03*
X173228000Y-100838000D03*
D17*
X180848000Y-100838000D03*
X125603000Y-119888000D03*
D18*
X133223000Y-119888000D03*
X148463000Y-123444000D03*
D17*
X148463000Y-131064000D03*
D18*
X154178000Y-119888000D03*
D17*
X161798000Y-119888000D03*
D18*
X167481250Y-123825000D03*
D17*
X167481250Y-116205000D03*
D10*
X122376250Y-48391250D03*
D11*
X122356250Y-48681250D02*
X122396250Y-48101250D01*
D10*
X122396250Y-48101250D03*
X116701251Y-49911250D03*
D11*
X116046250Y-50641250D02*
X117356252Y-49181250D01*
D12*
X119856250Y-53181250D03*
D10*
X117356250Y-49181250D03*
D13*
X114776250Y-53181250D03*
X124936250Y-53181250D03*
X143986250Y-53181250D03*
X133826250Y-53181250D03*
D10*
X136406250Y-49181250D03*
D12*
X138906250Y-53181250D03*
D10*
X135751251Y-49911250D03*
D11*
X135096250Y-50641250D02*
X136406252Y-49181250D01*
D10*
X141446250Y-48101250D03*
X141426250Y-48391250D03*
D11*
X141406250Y-48681250D02*
X141446250Y-48101250D01*
D13*
X163036250Y-91281250D03*
X152876250Y-91281250D03*
D10*
X155456250Y-87281250D03*
D12*
X157956250Y-91281250D03*
D10*
X154801251Y-88011250D03*
D11*
X154146250Y-88741250D02*
X155456252Y-87281250D01*
D10*
X160496250Y-86201250D03*
X160476250Y-86491250D03*
D11*
X160456250Y-86781250D02*
X160496250Y-86201250D01*
D10*
X179526250Y-86491250D03*
D11*
X179506250Y-86781250D02*
X179546250Y-86201250D01*
D10*
X179546250Y-86201250D03*
X173851251Y-88011250D03*
D11*
X173196250Y-88741250D02*
X174506252Y-87281250D01*
D12*
X177006250Y-91281250D03*
D10*
X174506250Y-87281250D03*
D13*
X171926250Y-91281250D03*
X182086250Y-91281250D03*
D10*
X122376250Y-105541250D03*
D11*
X122356250Y-105831250D02*
X122396250Y-105251250D01*
D10*
X122396250Y-105251250D03*
X116701251Y-107061250D03*
D11*
X116046250Y-107791250D02*
X117356252Y-106331250D01*
D12*
X119856250Y-110331250D03*
D10*
X117356250Y-106331250D03*
D13*
X114776250Y-110331250D03*
X124936250Y-110331250D03*
D10*
X160476250Y-105541250D03*
D11*
X160456250Y-105831250D02*
X160496250Y-105251250D01*
D10*
X160496250Y-105251250D03*
X154801251Y-107061250D03*
D11*
X154146250Y-107791250D02*
X155456252Y-106331250D01*
D12*
X157956250Y-110331250D03*
D10*
X155456250Y-106331250D03*
D13*
X152876250Y-110331250D03*
X163036250Y-110331250D03*
D10*
X122376250Y-124591250D03*
D11*
X122356250Y-124881250D02*
X122396250Y-124301250D01*
D10*
X122396250Y-124301250D03*
X116701251Y-126111250D03*
D11*
X116046250Y-126841250D02*
X117356252Y-125381250D01*
D12*
X119856250Y-129381250D03*
D10*
X117356250Y-125381250D03*
D13*
X114776250Y-129381250D03*
X124936250Y-129381250D03*
X143986250Y-129381250D03*
X133826250Y-129381250D03*
D10*
X136406250Y-125381250D03*
D12*
X138906250Y-129381250D03*
D10*
X135751251Y-126111250D03*
D11*
X135096250Y-126841250D02*
X136406252Y-125381250D01*
D10*
X141446250Y-124301250D03*
X141426250Y-124591250D03*
D11*
X141406250Y-124881250D02*
X141446250Y-124301250D01*
D10*
X160476250Y-124591250D03*
D11*
X160456250Y-124881250D02*
X160496250Y-124301250D01*
D10*
X160496250Y-124301250D03*
X154801251Y-126111250D03*
D11*
X154146250Y-126841250D02*
X155456252Y-125381250D01*
D12*
X157956250Y-129381250D03*
D10*
X155456250Y-125381250D03*
D13*
X152876250Y-129381250D03*
X163036250Y-129381250D03*
X182086250Y-129381250D03*
X171926250Y-129381250D03*
D10*
X174506250Y-125381250D03*
D12*
X177006250Y-129381250D03*
D10*
X173851251Y-126111250D03*
D11*
X173196250Y-126841250D02*
X174506252Y-125381250D01*
D10*
X179546250Y-124301250D03*
X179526250Y-124591250D03*
D11*
X179506250Y-124881250D02*
X179546250Y-124301250D01*
D10*
X131901250Y-124591250D03*
D11*
X131881250Y-124881250D02*
X131921250Y-124301250D01*
D10*
X131921250Y-124301250D03*
X126226251Y-126111250D03*
D11*
X125571250Y-126841250D02*
X126881252Y-125381250D01*
D12*
X129381250Y-129381250D03*
D10*
X126881250Y-125381250D03*
D13*
X124301250Y-129381250D03*
X134461250Y-129381250D03*
D16*
X117443250Y-136366250D03*
X141319250Y-136366250D03*
D12*
X117443250Y-121126250D03*
X141319250Y-121126250D03*
D19*
X185483500Y-65246250D03*
X185483500Y-63976250D03*
X185483500Y-60166250D03*
X185483500Y-61436250D03*
X185483500Y-62706250D03*
X188372750Y-62706250D03*
X188372750Y-63976250D03*
X188372750Y-65246250D03*
X188372750Y-61436250D03*
X188372750Y-60166250D03*
X185483500Y-122396250D03*
X185483500Y-121126250D03*
X185483500Y-117316250D03*
X185483500Y-118586250D03*
X185483500Y-119856250D03*
X188372750Y-119856250D03*
X188372750Y-121126250D03*
X188372750Y-122396250D03*
X188372750Y-118586250D03*
X188372750Y-117316250D03*
X108489750Y-65246250D03*
X108489750Y-63976250D03*
X108489750Y-60166250D03*
X108489750Y-61436250D03*
X108489750Y-62706250D03*
X111379000Y-62706250D03*
X111379000Y-63976250D03*
X111379000Y-65246250D03*
X111379000Y-61436250D03*
X111379000Y-60166250D03*
X108489750Y-122396250D03*
X108489750Y-121126250D03*
X108489750Y-117316250D03*
X108489750Y-118586250D03*
X108489750Y-119856250D03*
X111379000Y-119856250D03*
X111379000Y-121126250D03*
X111379000Y-122396250D03*
X111379000Y-118586250D03*
X111379000Y-117316250D03*
M02*
