M48
; DRILL file {KiCad (5.1.4)-1} date 28/08/2021 18:15:58
; FORMAT={-:-/ absolute / inch / decimal}
; #@! TF.CreationDate,2021-08-28T18:15:58+01:00
; #@! TF.GenerationSoftware,Kicad,Pcbnew,(5.1.4)-1
; #@! TF.FileFunction,NonPlated,1,2,NPTH
FMAT,2
INCH
T1C0.0310
T2C0.0689
T3C0.1200
T4C0.1570
%
G90
G05
T1
X4.2713Y-2.3687
X4.2713Y-2.4187
X4.2713Y-2.4688
X4.2713Y-2.5187
X4.2713Y-2.5688
X4.385Y-4.6187
X4.385Y-4.6688
X4.385Y-4.7188
X4.385Y-4.7687
X4.385Y-4.8187
X7.3025Y-4.6187
X7.3025Y-4.6688
X7.3025Y-4.7188
X7.3025Y-4.7687
X7.3025Y-4.8187
X7.4162Y-4.6187
X7.4162Y-4.6688
X7.4162Y-4.7188
X7.4162Y-4.7687
X7.4162Y-4.8187
X4.385Y-2.3687
X4.385Y-2.4187
X4.385Y-2.4688
X4.385Y-2.5187
X4.385Y-2.5688
X7.4162Y-2.3687
X7.4162Y-2.4187
X7.4162Y-2.4688
X7.4162Y-2.5187
X7.4162Y-2.5688
X4.2713Y-4.6187
X4.2713Y-4.6688
X4.2713Y-4.7188
X4.2713Y-4.7687
X4.2713Y-4.8187
X7.3025Y-2.3687
X7.3025Y-2.4187
X7.3025Y-2.4688
X7.3025Y-2.5187
X7.3025Y-2.5688
T2
X5.2687Y-5.0938
X5.6688Y-5.0938
X6.0187Y-3.5938
X6.4188Y-3.5938
X5.2687Y-2.8438
X5.6688Y-2.8438
X6.0187Y-2.0938
X6.4188Y-2.0938
X6.0187Y-5.0938
X6.4188Y-5.0938
X6.7687Y-4.7188
X7.1688Y-4.7188
X6.0187Y-4.3438
X6.4188Y-4.3438
X4.8937Y-5.0938
X5.2938Y-5.0938
X4.5187Y-3.5938
X4.9188Y-3.5938
X6.0187Y-2.8438
X6.4188Y-2.8438
X5.2687Y-2.0938
X5.6688Y-2.0938
X5.2687Y-4.3438
X5.6688Y-4.3438
X6.7687Y-5.0938
X7.1688Y-5.0938
X6.7687Y-3.5938
X7.1688Y-3.5938
X4.5187Y-2.0938
X4.9188Y-2.0938
X4.5187Y-5.0938
X4.9188Y-5.0938
X5.2687Y-3.5938
X5.6688Y-3.5938
X6.7687Y-4.3438
X7.1688Y-4.3438
X4.5187Y-4.3438
X4.9188Y-4.3438
X4.5187Y-2.8438
X4.9188Y-2.8438
T3
X7.2437Y-4.2488
X7.2437Y-5.1887
X4.6238Y-5.3687
X5.5637Y-5.3687
T4
X4.7188Y-2.0938
X4.7188Y-5.0938
X5.4688Y-3.5938
X6.9688Y-4.3438
X4.7188Y-4.3438
X4.7188Y-2.8438
X5.4688Y-5.0938
X6.2188Y-3.5938
X5.4688Y-2.8438
X6.2188Y-2.0938
X6.2188Y-5.0938
X6.6437Y-4.2488
X6.6437Y-5.1887
X6.9688Y-4.7188
X6.2188Y-4.3438
X4.6238Y-4.7687
X5.0938Y-5.0938
X5.5637Y-4.7687
X4.7188Y-3.5938
X6.2188Y-2.8438
X5.4688Y-2.0938
X5.4688Y-4.3438
X6.9688Y-5.0938
X6.9688Y-3.5938
T0
M30
