M48
; DRILL file {KiCad (5.1.4)-1} date 28/08/2021 18:15:58
; FORMAT={-:-/ absolute / inch / decimal}
; #@! TF.CreationDate,2021-08-28T18:15:58+01:00
; #@! TF.GenerationSoftware,Kicad,Pcbnew,(5.1.4)-1
; #@! TF.FileFunction,Plated,1,2,PTH
FMAT,2
INCH
T1C0.0157
T2C0.0315
T3C0.0320
T4C0.0394
T5C0.0433
T6C0.0579
%
G90
G05
T1
X5.095Y-2.595
X5.095Y-3.035
X5.1Y-3.155
X5.115Y-4.12
X5.115Y-4.475
X5.1925Y-3.8225
X5.69Y-2.23
X5.84Y-2.66
X5.84Y-2.995
X5.845Y-2.505
X5.93Y-2.705
X5.955Y-1.9223
X5.995Y-2.385
X6.05Y-2.585
X6.335Y-4.45
X6.43Y-4.22
X6.435Y-2.98
X6.4375Y-4.025
X6.4825Y-3.2175
X6.4975Y-3.335
X6.7Y-2.94
X6.7125Y-2.58
X6.7825Y-2.4
X6.8875Y-1.88
X6.8875Y-2.0525
X6.9325Y-2.3475
X6.935Y-2.65
X7.015Y-2.6475
X7.09Y-2.77
X7.09Y-2.965
X7.1282Y-3.4937
T2
X6.82Y-3.12
X7.12Y-3.12
X5.096Y-3.444
X5.096Y-3.744
X5.32Y-2.47
X5.62Y-2.47
X4.945Y-4.72
X5.245Y-4.72
X6.07Y-4.72
X6.37Y-4.72
X4.57Y-3.22
X4.87Y-3.22
X4.57Y-2.47
X4.87Y-2.47
X4.57Y-3.97
X4.87Y-3.97
X6.07Y-2.47
X6.37Y-2.47
X6.82Y-3.97
X7.12Y-3.97
X6.596Y-3.444
X6.596Y-3.744
X5.32Y-3.22
X5.62Y-3.22
X6.07Y-3.22
X6.37Y-3.22
X6.07Y-3.97
X6.37Y-3.97
X5.32Y-3.97
X5.62Y-3.97
X5.844Y-4.948
X5.844Y-5.248
X6.5938Y-4.575
X6.5938Y-4.875
X5.845Y-3.444
X5.845Y-3.744
T3
X6.82Y-3.25
X6.92Y-3.25
X7.02Y-3.25
X7.12Y-3.25
T4
X5.85Y-2.04
X5.85Y-2.14
X5.1Y-2.0
X5.1Y-2.1
X5.1Y-2.2
T5
X6.6Y-1.85
X6.6Y-1.95
X6.6Y-2.05
X6.6Y-2.15
X6.6Y-2.25
X6.6Y-2.35
X6.6Y-2.45
X6.6Y-2.55
X6.6Y-2.65
X6.6Y-2.75
X6.6Y-2.85
X6.6Y-2.95
X7.2Y-1.85
X7.2Y-1.95
X7.2Y-2.05
X7.2Y-2.15
X7.2Y-2.25
X7.2Y-2.35
X7.2Y-2.45
X7.2Y-2.55
X7.2Y-2.65
X7.2Y-2.75
X7.2Y-2.85
X7.2Y-2.95
T6
X5.3187Y-4.9937
X5.3703Y-4.9363
X5.5672Y-4.9166
X5.5687Y-4.8937
X6.0687Y-3.4937
X6.1203Y-3.4363
X6.3172Y-3.4166
X6.3187Y-3.3937
X5.3187Y-2.7437
X5.3703Y-2.6863
X5.5672Y-2.6666
X5.5687Y-2.6437
X6.0687Y-1.9937
X6.1203Y-1.9363
X6.3172Y-1.9166
X6.3187Y-1.8938
X6.0687Y-4.9937
X6.1203Y-4.9363
X6.3172Y-4.9166
X6.3187Y-4.8937
X6.8187Y-4.6187
X6.8703Y-4.5613
X7.0672Y-4.5416
X7.0687Y-4.5187
X6.0687Y-4.2437
X6.1203Y-4.1863
X6.3172Y-4.1666
X6.3187Y-4.1437
X4.9437Y-4.9937
X4.9953Y-4.9363
X5.1922Y-4.9166
X5.1937Y-4.8937
X4.5687Y-3.4937
X4.6203Y-3.4363
X4.8172Y-3.4166
X4.8187Y-3.3937
X6.0687Y-2.7437
X6.1203Y-2.6863
X6.3172Y-2.6666
X6.3187Y-2.6437
X5.3187Y-1.9937
X5.3703Y-1.9363
X5.5672Y-1.9166
X5.5687Y-1.8938
X5.3187Y-4.2437
X5.3703Y-4.1863
X5.5672Y-4.1666
X5.5687Y-4.1437
X6.8187Y-4.9937
X6.8703Y-4.9363
X7.0672Y-4.9166
X7.0687Y-4.8937
X6.8187Y-3.4937
X6.8703Y-3.4363
X7.0672Y-3.4166
X7.0687Y-3.3937
X4.5687Y-1.9937
X4.6203Y-1.9363
X4.8172Y-1.9166
X4.8187Y-1.8938
X4.5687Y-4.9937
X4.6203Y-4.9363
X4.8172Y-4.9166
X4.8187Y-4.8937
X5.3187Y-3.4937
X5.3703Y-3.4363
X5.5672Y-3.4166
X5.5687Y-3.3937
X6.8187Y-4.2437
X6.8703Y-4.1863
X7.0672Y-4.1666
X7.0687Y-4.1437
X4.5687Y-4.2437
X4.6203Y-4.1863
X4.8172Y-4.1666
X4.8187Y-4.1437
X4.5687Y-2.7437
X4.6203Y-2.6863
X4.8172Y-2.6666
X4.8187Y-2.6437
T0
M30
